<svg xmlns="http://www.w3.org/2000/svg" viewBox="0 0 48 48" fill="none">
  <g fill="currentColor" transform="translate(4.733, 0)">
    <path fill-rule="evenodd" d="M20.766 1C20.766 0.448 20.319 0 19.766 0L18.766 0C18.214 0 17.766 0.448 17.766 1L17.766 4.067C9.357 4.825 2.767 11.893 2.767 20.500L2.767 31.111C2.767 32.353 2.477 33.578 1.922 34.689L0.214 38.106C-0.451 39.435 0.516 41 2.003 41L36.530 41C38.017 41 38.984 39.435 38.319 38.106L36.611 34.689C36.056 33.578 35.767 32.353 35.767 31.111L35.767 20.500C35.767 11.893 29.176 4.825 20.766 4.067L20.766 1ZM19.267 7C11.811 7 5.767 13.044 5.767 20.500L5.767 31.111C5.767 32.819 5.369 34.503 4.605 36.031L3.621 38L34.912 38L33.928 36.031C33.164 34.503 32.767 32.819 32.767 31.111L32.767 20.500C32.767 13.044 26.722 7 19.267 7Z"/>
    <path d="M14.266 48C13.714 48 13.266 47.552 13.266 47L13.266 46C13.266 45.448 13.714 45 14.266 45L24.266 45C24.819 45 25.266 45.448 25.266 46L25.266 47C25.266 47.552 24.819 48 24.266 48L14.266 48Z"/>
  </g>
</svg>