<svg xmlns="http://www.w3.org/2000/svg" viewBox="0 0 48 48" fill="none">
  <path d="M41.228 2.714C39.671 0.470 37.274 -0.310 34.236 0.108C33.701 0.180 33.150 0.325 32.588 0.515C32.095 0.686 31.616 0.896 31.153 1.139C20.975 6.519 19.669 16.859 19.669 16.859C17.246 14.432 13.274 12.891 10.445 12.374C7.627 11.860 1.733 11.769 0.188 16.414C-1.635 24.761 10.342 30.285 13.620 31.632C14.550 32.012 15.040 32.187 15.921 32.511C23.660 35.371 19.551 43.399 19.339 44L22.574 44C22.973 41.284 23.201 38.830 23.565 37.312C24.234 34.538 25.274 32.434 28.422 30.319C43.533 20.180 43.734 6.321 41.228 2.714Z" transform="translate(2.786, 2)" fill="currentColor"/>
</svg>