<svg xmlns="http://www.w3.org/2000/svg" viewBox="0 0 48 48" fill="none">
  <g fill="currentColor" transform="translate(0.667, 3.770)">
    <path d="M21.833 13.460C21.833 12.908 22.281 12.460 22.833 12.460L23.833 12.460C24.386 12.460 24.833 12.908 24.833 13.460L24.833 23.460C24.833 24.013 24.386 24.460 23.833 24.460L22.833 24.460C22.281 24.460 21.833 24.013 21.833 23.460L21.833 13.460Z"/>
    <path d="M24.333 28.460C24.886 28.460 25.333 28.908 25.333 29.460L25.333 31.460C25.333 32.013 24.886 32.460 24.333 32.460L22.333 32.460C21.781 32.460 21.333 32.013 21.333 31.460L21.333 29.460C21.333 28.908 21.781 28.460 22.333 28.460L24.333 28.460Z"/>
    <path fill-rule="evenodd" d="M18.208 2.880C20.546 -0.960 26.121 -0.960 28.458 2.880L45.782 31.341C48.216 35.339 45.338 40.460 40.657 40.460L6.009 40.460C1.329 40.460 -1.550 35.339 0.884 31.341L18.208 2.880ZM25.896 4.440L43.219 32.901C44.436 34.900 42.997 37.460 40.657 37.460L6.009 37.460C3.669 37.460 2.230 34.900 3.447 32.901L20.770 4.440C21.939 2.520 24.727 2.520 25.896 4.440Z"/>
  </g>
</svg>