<svg xmlns="http://www.w3.org/2000/svg" viewBox="0 0 48 48" fill="none">
  <path fill-rule="evenodd" d="M12.216 40.887C15.432 42.502 19.103 43.416 23 43.416C35.703 43.416 46 33.697 46 21.708C46 9.719 35.703 0 23 0C10.297 0 0 9.719 0 21.708C0 26.596 1.712 31.107 4.600 34.735L4.600 42.071C4.600 43.647 6.337 44.604 7.669 43.762L12.216 40.887ZM41.437 14.493C42.466 16.789 42.980 19.194 42.980 21.708C42.980 24.222 42.466 26.627 41.437 28.923C40.437 31.154 39.021 33.134 37.191 34.862C35.347 36.602 33.228 37.949 30.833 38.906C28.344 39.899 25.733 40.396 23 40.396C19.647 40.396 16.503 39.660 13.570 38.188L12.045 37.422L7.620 40.220L7.620 33.680L6.963 32.854C4.334 29.552 3.020 25.837 3.020 21.708C3.020 19.194 3.534 16.789 4.563 14.493C5.563 12.262 6.979 10.282 8.809 8.554C10.653 6.815 12.772 5.467 15.167 4.511C17.656 3.517 20.267 3.020 23 3.020C25.733 3.020 28.344 3.517 30.833 4.511C33.228 5.467 35.347 6.815 37.191 8.554C39.021 10.282 40.437 12.262 41.437 14.493ZM16.727 19.701C17.882 19.701 18.818 20.629 18.818 21.773C18.818 22.917 17.882 23.844 16.727 23.844C15.572 23.844 14.636 22.917 14.636 21.773C14.636 20.629 15.572 19.701 16.727 19.701ZM31.364 21.773C31.364 20.629 30.428 19.701 29.273 19.701C28.118 19.701 27.182 20.629 27.182 21.773C27.182 22.917 28.118 23.844 29.273 23.844C30.428 23.844 31.364 22.917 31.364 21.773Z" transform="translate(1, 2)" fill="currentColor"/>
</svg>