<svg xmlns="http://www.w3.org/2000/svg" viewBox="0 0 48 48" fill="none">
  <g fill="currentColor">
    <path d="M24 48C10.745 48 0 37.255 0 24L0 13.500C0 12.895 0.363 12.350 0.921 12.116C1.478 11.883 2.122 12.007 2.553 12.431L11.909 21.646C12.302 22.033 12.307 22.666 11.920 23.060L11.218 23.772C10.830 24.166 10.197 24.171 9.804 23.783L3 17.083L3 24C3 35.598 12.402 45 24 45C35.598 45 45 35.598 45 24C45 12.402 35.598 3 24 3C18.621 3 13.717 5.021 10 8.347L9.628 8.680C9.216 9.049 8.584 9.014 8.216 8.602L7.549 7.857C7.181 7.445 7.216 6.813 7.627 6.445L8 6.111C12.245 2.312 17.854 0 24 0C37.255 0 48 10.745 48 24C48 37.255 37.255 48 24 48Z"/>
    <path d="M22.500 30.063C21.167 30.832 19.500 29.870 19.500 28.330L19.500 19.670C19.500 18.130 21.167 17.168 22.500 17.938L30 22.268C31.333 23.037 31.333 24.963 30 25.732L22.500 30.063Z"/>
  </g>
</svg>