<svg xmlns="http://www.w3.org/2000/svg" viewBox="0 0 48 48" fill="none">
  <path d="M6.290 1.500C6.290 0.992 6.033 0.519 5.607 0.242C5.181 -0.034 4.644 -0.077 4.180 0.129L0.594 1.723C0.089 1.947 -0.138 2.538 0.086 3.043L0.493 3.957C0.717 4.462 1.308 4.689 1.813 4.465L3.415 3.752C3.876 7.865 5.584 11.600 8.151 14.571L5.211 18.391C4.874 18.828 4.956 19.456 5.393 19.793L6.186 20.403C6.623 20.740 7.251 20.658 7.588 20.221L10.295 16.704C13.435 19.390 17.416 21.120 21.789 21.445L21.789 25C21.789 25.552 22.237 26 22.789 26L23.789 26C24.342 26 24.789 25.552 24.789 25L24.789 21.445C29.162 21.120 33.144 19.390 36.284 16.704L38.991 20.221C39.328 20.658 39.956 20.740 40.393 20.403L41.186 19.793C41.623 19.456 41.705 18.828 41.368 18.391L38.428 14.571C40.995 11.600 42.703 7.865 43.164 3.752L44.766 4.465C45.271 4.689 45.862 4.462 46.086 3.957L46.493 3.043C46.717 2.538 46.490 1.947 45.985 1.723L42.399 0.129C41.935 -0.077 41.398 -0.034 40.972 0.242C40.546 0.519 40.290 0.992 40.290 1.500C40.290 10.889 32.678 18.500 23.290 18.500C13.901 18.500 6.290 10.889 6.290 1.500Z" transform="translate(0.710, 14)" fill="currentColor"/>
</svg>