<svg xmlns="http://www.w3.org/2000/svg" viewBox="0 0 48 48" fill="none">
  <path d="M15.146 17.268L27.879 30C28.269 30.391 28.902 30.391 29.293 30L30 29.293C30.391 28.902 30.391 28.269 30 27.879L17.268 15.146L30 2.414C30.391 2.024 30.391 1.391 30 1L29.293 0.293C28.902 -0.098 28.269 -0.098 27.879 0.293L15.146 13.025L2.414 0.293C2.024 -0.098 1.391 -0.098 1 0.293L0.293 1C-0.098 1.391 -0.098 2.024 0.293 2.414L13.025 15.146L0.293 27.879C-0.098 28.269 -0.098 28.902 0.293 29.293L1 30C1.391 30.391 2.024 30.391 2.414 30L15.146 17.268Z" transform="translate(8.854, 8.854)" fill="currentColor"/>
</svg>