<svg xmlns="http://www.w3.org/2000/svg" viewBox="0 0 48 48" fill="none">
  <path d="M38.274 29.423C34.343 33.410 29.173 36.748 24 39.589C18.827 36.748 13.657 33.410 9.726 29.423C5.580 25.219 3 20.494 3 15C3 8.174 8.116 3 14 3C16.718 3 19.228 4.075 21.177 5.909C22.760 7.398 25.240 7.398 26.823 5.909C28.772 4.075 31.282 3 34 3C39.884 3 45 8.174 45 15C45 20.494 42.420 25.219 38.274 29.423ZM24.468 42.749C35.605 36.757 48 28.071 48 15C48 6.716 41.732 0 34 0C30.463 0 27.232 1.406 24.767 3.724C24.340 4.126 23.660 4.126 23.233 3.724C20.768 1.406 17.537 0 14 0C6.268 0 0 6.716 0 15C0 28.071 12.395 36.757 23.532 42.749C23.825 42.907 24.175 42.907 24.468 42.749Z" transform="translate(0, 3)" fill="currentColor"/>
</svg>