<svg xmlns="http://www.w3.org/2000/svg" viewBox="0 0 48 48" fill="none">
  <g fill="currentColor" transform="translate(19.5, 4)">
    <path d="M4.5 31C6.985 31 9 33.015 9 35.5C9 37.985 6.985 40 4.5 40C2.015 40 0 37.985 0 35.5C0 33.015 2.015 31 4.5 31Z"/>
    <path d="M4.5 15.5C6.985 15.5 9 17.515 9 20C9 22.485 6.985 24.5 4.5 24.5C2.015 24.5 0 22.485 0 20C0 17.515 2.015 15.5 4.5 15.5Z"/>
    <path d="M4.5 0C6.985 0 9 2.015 9 4.5C9 6.985 6.985 9 4.5 9C2.015 9 0 6.985 0 4.5C0 2.015 2.015 0 4.5 0Z"/>
  </g>
</svg>