<svg xmlns="http://www.w3.org/2000/svg" viewBox="0 0 48 48" fill="none">
  <g fill="currentColor" transform="translate(1.5, 2.5)">
    <path fill-rule="evenodd" d="M22.500 2.230C33.701 2.230 42.781 11.357 42.781 22.615C42.781 33.873 33.701 43 22.500 43C11.299 43 2.219 33.873 2.219 22.615C2.219 11.357 11.299 2.230 22.500 2.230ZM21.534 10.481C21.001 10.481 20.569 10.916 20.569 11.452L20.569 21.409C20.568 21.667 20.467 21.914 20.286 22.096L13.608 28.807C13.231 29.186 13.231 29.801 13.608 30.180L14.974 31.552C15.351 31.931 15.962 31.931 16.339 31.552L24.149 23.703C24.330 23.521 24.432 23.274 24.432 23.017L24.432 11.452C24.431 10.916 23.999 10.481 23.466 10.481L21.534 10.481Z"/>
    <path d="M9.093 0.132C9.551 -0.144 10.139 0.028 10.397 0.498L11.329 2.201C11.586 2.670 11.414 3.259 10.959 3.537C7.924 5.396 5.368 7.965 3.519 11.015C3.242 11.472 2.657 11.645 2.190 11.387L0.496 10.450C0.028 10.191 -0.143 9.600 0.132 9.140C2.337 5.449 5.421 2.349 9.093 0.132Z"/>
    <path d="M34.602 0.498C34.860 0.028 35.448 -0.144 35.906 0.132C39.578 2.349 42.663 5.449 44.869 9.140C45.143 9.600 44.971 10.191 44.504 10.450L42.811 11.387C42.344 11.645 41.758 11.472 41.481 11.015C39.632 7.965 37.075 5.396 34.040 3.537C33.585 3.259 33.415 2.670 33.672 2.201L34.602 0.498Z"/>
  </g>
</svg>