<svg xmlns="http://www.w3.org/2000/svg" viewBox="0 0 48 48" fill="none">
  <g fill="currentColor">
    <path d="M6.933 7.126L6.582 7.482C6.194 7.874 6.197 8.507 6.590 8.896L7.301 9.599C7.694 9.987 8.327 9.984 8.715 9.591L9.067 9.235C12.875 5.384 18.158 3 24 3C35.598 3 45 12.402 45 24L45 30.917L38.196 24.217C37.803 23.829 37.170 23.834 36.782 24.228L36.080 24.940C35.693 25.334 35.698 25.967 36.091 26.354L45.447 35.569C45.878 35.993 46.522 36.117 47.079 35.884C47.637 35.650 48 35.105 48 34.5L48 24C48 10.745 37.255 0 24 0C17.324 0 11.282 2.728 6.933 7.126Z"/>
    <path d="M41.067 40.874L41.418 40.518C41.806 40.126 41.803 39.493 41.410 39.104L40.699 38.401C40.306 38.013 39.673 38.016 39.285 38.409L38.933 38.765C35.125 42.616 29.842 45 24 45C12.402 45 3 35.598 3 24L3 17.083L9.804 23.783C10.197 24.171 10.830 24.166 11.218 23.772L11.920 23.060C12.307 22.666 12.302 22.033 11.909 21.646L2.553 12.431C2.122 12.007 1.478 11.883 0.921 12.116C0.363 12.350 0 12.895 0 13.5L0 24C0 37.255 10.745 48 24 48C30.676 48 36.718 45.272 41.067 40.874Z"/>
  </g>
</svg>