<svg xmlns="http://www.w3.org/2000/svg" viewBox="0 0 48 48" fill="none">
  <path d="M26.701 0.287C26.069 -0.331 25 0.115 25 0.997L25 10.818C25 11.326 24.613 11.751 24.106 11.821C10.564 13.695 0.121 25.203 0.001 39.160C0.001 39.191 0.001 39.222 0 39.253C0 39.303 0 39.353 0 39.403L0 40.980C0 41.866 1.077 42.310 1.707 41.683L6.142 37.272C9.893 33.542 14.980 31.446 20.284 31.446L24 31.446C24.552 31.446 25 31.891 25 32.441L25 43.003C25 43.885 26.069 44.331 26.701 43.713L47.674 22.209C48.073 21.820 48.073 21.180 47.674 20.791L26.701 0.287ZM28 37.259L28 32.441C28 30.243 26.209 28.462 24 28.462L20.284 28.462C14.184 28.462 8.334 30.872 4.021 35.162L3.241 35.938C4.777 24.977 13.499 16.301 24.520 14.776C26.445 14.510 28 12.879 28 10.818L28 5.741L44.120 21.500L28 37.259Z" transform="translate(0, 2)" fill="currentColor"/>
</svg>