<svg xmlns="http://www.w3.org/2000/svg" viewBox="0 0 48 48" fill="none">
  <path fill-rule="evenodd" d="M34 0C41.732 0 48 6.716 48 15C48 28.071 35.606 36.757 24.469 42.749C24.175 42.907 23.825 42.907 23.531 42.749C12.394 36.757 0 28.071 0 15C0 6.716 6.268 0 14 0C15.774 0 17.471 0.354 19.032 1C19.500 2 22.500 6 22.500 6L25.014 3.502C27.446 1.318 30.578 0 34 0ZM34 3C31.898 3 29.921 3.644 28.231 4.784L26 10L30 15L24 28L22.500 17L15.500 11L17.500 4.500C17 3.502 15.258 3 14 3C8.116 3 3 8.174 3 15C3 20.494 5.580 25.219 9.726 29.423C13.657 33.410 18.827 36.748 24 39.589C29.173 36.748 34.343 33.410 38.274 29.423C42.420 25.219 45 20.494 45 15C45 8.174 39.884 3 34 3Z" transform="translate(0, 3)" fill="currentColor"/>
</svg>