<svg xmlns="http://www.w3.org/2000/svg" viewBox="0 0 48 48" fill="none">
  <path d="M10.818 0C13.880 0 16.362 2.487 16.362 5.556L16.362 15.556L16.354 15.841C16.206 18.777 13.784 21.111 10.818 21.111L0 21.111C0.773 20.145 1.351 19.014 1.669 17.778L10.818 17.778C12.043 17.778 13.035 16.783 13.035 15.556L13.035 5.556C13.035 4.328 12.043 3.333 10.818 3.333L1.948 3.333L1.948 0L10.818 0Z" transform="translate(29.489, 22.889)" fill="currentColor" opacity="0.6"/>
  <g fill="currentColor" transform="translate(1.500, 4)">
    <path fill-rule="evenodd" d="M22.404 0.005C24.747 0.125 26.610 2.067 26.610 4.444L26.610 35.556C26.610 37.933 24.747 39.875 22.404 39.995L22.175 40L4.435 40C2.062 40 0.124 38.133 0.005 35.785L0 35.556L0 4.444C0 1.990 1.986 0 4.435 0L22.175 0L22.404 0.005ZM4.435 3.333C3.823 3.333 3.326 3.831 3.326 4.444L3.326 35.556C3.326 36.169 3.823 36.667 4.435 36.667L22.175 36.667C22.787 36.667 23.284 36.169 23.284 35.556L23.284 4.444C23.284 3.831 22.787 3.333 22.175 3.333L18.507 3.333L18.061 4.783C17.919 5.244 17.520 5.555 17.071 5.556L9.544 5.556C9.095 5.556 8.695 5.245 8.553 4.784L8.105 3.333L4.435 3.333Z"/>
    <path d="M28.828 0C34.645 0 39.361 4.726 39.361 10.556L39.361 10.977L42.521 8.600C43 8.240 43.677 8.326 44.052 8.794L44.757 9.677C45.143 10.160 45.060 10.867 44.573 11.248L36.930 17.214C36.566 17.498 36.035 17.238 36.035 16.775L36.035 10.556C36.035 6.852 33.252 3.800 29.668 3.383C29.353 2.128 28.772 0.979 27.989 0L28.828 0Z"/>
  </g>
</svg>