<svg xmlns="http://www.w3.org/2000/svg" viewBox="0 0 48 48" fill="none">
  <g fill="currentColor" transform="translate(2, 2)">
    <path d="M17.110 18.670L11.650 18.670L11.650 23.290L17.170 23.290L17.170 29.380C17.170 31.520 16.720 33.030 15.820 33.910C14.860 34.850 13.110 35.380 10.570 35.500L10.570 33.220C12.150 33.060 13.200 32.710 13.720 32.170C14.180 31.690 14.410 30.810 14.410 29.530L14.410 25.450L8.980 25.450L8.980 16.510L14.440 16.510L14.440 12.070L8.680 12.070L8.680 9.820L17.110 9.820L17.110 18.670Z"/>
    <path fill-rule="evenodd" d="M24.730 11.920L28.870 11.920L30.040 8.500L33.070 8.500L31.420 11.920L34.240 11.920L34.240 25.210L28.090 25.210L28.090 27.910L35.410 27.910L35.410 30.130L28.090 30.130L28.090 35.500L25.450 35.500L25.450 30.130L18.370 30.130L18.370 27.910L25.450 27.910L25.450 25.210L19.240 25.210L19.240 11.920L22.210 11.920L20.560 8.500L23.590 8.500L24.730 11.920ZM21.670 23.230L25.450 23.230L25.450 19.450L21.670 19.450L21.670 23.230ZM28.090 23.230L31.810 23.230L31.810 19.450L28.090 19.450L28.090 23.230ZM21.670 17.530L25.450 17.530L25.450 13.930L21.670 13.930L21.670 17.530ZM28.090 17.530L31.810 17.530L31.810 13.930L28.090 13.930L28.090 17.530Z"/>
    <path fill-rule="evenodd" d="M36.412 0.011C40.639 0.225 44 3.720 44 8L44 36C44 40.418 40.639 43.782 36.412 43.989L36 44L8 44C3.582 44 0 40.418 0 36L0 8C0 3.582 3.582 0 8 0L36 0L36.412 0.011ZM8 3C5.239 3 3 5.239 3 8L3 36C3 38.761 5.239 41 8 41L36 41C38.761 41 41 38.761 41 36L41 8C41 5.239 38.761 3 36 3L8 3Z"/>
  </g>
</svg>