<svg xmlns="http://www.w3.org/2000/svg" viewBox="0 0 48 48" fill="none">
  <path d="M38.654 0.118C42.086 -0.338 44.792 0.514 46.550 2.961C49.379 6.895 49.679 22.402 32.090 33.076C28.535 35.383 27.361 37.678 26.605 40.705C26.217 42.271 25.965 44.750 25.558 47.521L25.534 47.621C25.458 47.844 25.246 48.001 25.002 48.001L24.014 48.001L22.639 48.001L22.567 47.996C22.241 47.955 22.034 47.643 22.118 47.324L22.140 47.255C23.070 44.915 25.279 37.982 17.974 35.466C11.939 33.334 16.426 34.923 15.377 34.506C11.733 33.062 -1.426 27.199 0.127 18.332L0.212 17.908C1.955 12.841 8.612 12.940 11.792 13.501C14.987 14.065 19.472 15.744 22.208 18.393C22.215 18.338 23.709 7.096 35.174 1.243C35.696 0.979 36.236 0.750 36.794 0.561C37.430 0.354 38.051 0.199 38.654 0.118ZM44.113 4.711C43.186 3.421 41.738 2.734 39.049 3.091C38.680 3.140 38.250 3.242 37.744 3.406C37.331 3.546 36.929 3.716 36.537 3.914C31.477 6.497 28.642 10.252 27.055 13.377C26.259 14.944 25.783 16.345 25.509 17.337C25.372 17.832 25.287 18.222 25.237 18.474C25.212 18.600 25.197 18.691 25.188 18.744C25.186 18.760 25.183 18.772 25.181 18.781L25.182 18.782L25.181 18.784C25.181 18.788 25.181 18.791 25.180 18.794L25.180 18.795L24.667 22.727C24.561 23.543 23.571 23.888 22.980 23.316L20.121 20.548C18.104 18.596 14.603 17.150 11.817 16.561L11.270 16.455C9.921 16.217 7.901 16.100 6.152 16.513C4.518 16.899 3.546 17.615 3.102 18.741C2.581 21.445 4.190 24.111 7.492 26.715C10.328 28.952 13.732 30.569 15.722 31.407L16.482 31.717L16.484 31.718C16.554 31.746 16.650 31.784 16.740 31.825C16.748 31.828 16.812 31.859 16.901 31.905C17.388 32.077 18.060 32.314 18.974 32.637C20.986 33.333 22.858 34.494 24.176 36.165C24.424 36.478 24.938 36.440 25.125 36.087C25.328 35.705 25.553 35.325 25.806 34.949C26.910 33.303 28.415 31.884 30.457 30.559L30.495 30.534L30.533 30.510C38.735 25.533 42.570 19.567 44.111 14.601C44.889 12.094 45.089 9.825 44.965 8.033C44.834 6.156 44.371 5.071 44.113 4.713L44.113 4.711Z" transform="translate(0.001, 0)" fill="currentColor"/>
</svg>