<svg xmlns="http://www.w3.org/2000/svg" viewBox="0 0 48 48" fill="none">
  <g fill="currentColor" transform="translate(7, 7)">
    <path d="M20 16C18.895 16 18 15.105 18 14L18 1C18 0.448 18.448 0 19 0L20 0C20.552 0 21 0.448 21 1L21 13L33 13C33.552 13 34 13.448 34 14L34 15C34 15.552 33.552 16 33 16L20 16Z"/>
    <path d="M14 18C15.105 18 16 18.895 16 20L16 33C16 33.552 15.552 34 15 34L14 34C13.448 34 13 33.552 13 33L13 21L1 21C0.448 21 0 20.552 0 20L0 19C0 18.448 0.448 18 1 18L14 18Z"/>
  </g>
</svg>