<svg xmlns="http://www.w3.org/2000/svg" viewBox="0 0 48 48" fill="none">
  <g fill="currentColor" transform="translate(0, 3)">
    <path d="M24 39.589C26.554 38.187 29.106 36.663 31.510 35L33 35L33 37.617C30.225 39.521 27.306 41.222 24.468 42.749C24.175 42.907 23.825 42.907 23.532 42.749C12.395 36.757 0 28.071 0 15C0 6.716 6.268 0 14 0C17.537 0 20.768 1.406 23.233 3.724C23.660 4.126 24.340 4.126 24.767 3.724C27.232 1.406 30.463 0 34 0C41.732 0 48 6.716 48 15C48 19.076 46.795 22.726 44.798 26L42 26L42 24.820C43.907 21.827 45 18.576 45 15C45 8.174 39.884 3 34 3C31.282 3 28.772 4.075 26.823 5.909C25.240 7.398 22.760 7.398 21.177 5.909C19.228 4.075 16.718 3 14 3C8.116 3 3 8.174 3 15C3 20.494 5.580 25.219 9.726 29.423C13.657 33.410 18.827 36.748 24 39.589Z"/>
    <path d="M38 20C38.552 20 39 20.448 39 21L39 29L47 29C47.552 29 48 29.448 48 30L48 31C48 31.552 47.552 32 47 32L39 32L39 40C39 40.552 38.552 41 38 41L37 41C36.448 41 36 40.552 36 40L36 32L28 32C27.448 32 27 31.552 27 31L27 30C27 29.448 27.448 29 28 29L36 29L36 21C36 20.448 36.448 20 37 20L38 20Z"/>
  </g>
</svg>