<svg xmlns="http://www.w3.org/2000/svg" viewBox="0 0 48 48" fill="none">
  <path d="M14.840 19.785L4.947 19.785C3.635 19.783 2.379 19.262 1.451 18.335C0.524 17.408 0.002 16.151 0 14.840L0 4.947C0.002 3.635 0.523 2.378 1.451 1.451C2.378 0.523 3.635 0.002 4.947 0L14.840 0C16.151 0.002 17.408 0.524 18.335 1.451C19.262 2.379 19.783 3.635 19.785 4.947L19.785 14.840C19.783 16.151 19.261 17.407 18.334 18.334C17.407 19.261 16.151 19.783 14.840 19.785ZM4.947 3.296C4.039 3.296 3.298 4.039 3.298 4.947L3.298 14.840C3.298 15.748 4.039 16.489 4.947 16.489L14.840 16.489C15.748 16.489 16.489 15.748 16.489 14.840L16.489 4.947C16.489 4.039 15.748 3.298 14.840 3.298L4.947 3.298L4.947 3.296ZM14.840 42.731L4.947 42.731C3.635 42.730 2.379 42.208 1.451 41.281C0.524 40.354 0.002 39.097 0 37.786L0 27.893C0.002 26.582 0.523 25.325 1.451 24.397C2.378 23.470 3.635 22.948 4.947 22.946L14.840 22.946C16.151 22.949 17.408 23.471 18.335 24.398C19.262 25.325 19.783 26.582 19.785 27.893L19.785 37.786C19.783 39.097 19.261 40.354 18.334 41.281C17.407 42.207 16.151 42.729 14.840 42.731ZM4.947 26.243C4.039 26.243 3.298 26.983 3.298 27.893L3.298 37.786C3.298 38.696 4.039 39.435 4.947 39.435L14.840 39.435C15.748 39.435 16.489 38.696 16.489 37.786L16.489 27.893C16.489 26.983 15.748 26.244 14.840 26.244L4.947 26.244L4.947 26.243ZM37.786 43.200L27.893 43.200C25.166 43.200 22.946 40.896 22.946 38.063L22.946 34.638C22.946 31.809 25.166 29.503 27.893 29.503L37.786 29.503C40.512 29.503 42.731 31.807 42.731 34.639L42.731 38.065C42.731 40.896 40.512 43.200 37.786 43.200ZM27.893 32.927C26.983 32.927 26.244 33.694 26.244 34.639L26.244 38.065C26.244 39.009 26.982 39.776 27.893 39.776L37.786 39.776C38.696 39.776 39.435 39.009 39.435 38.063L39.435 34.638C39.435 33.694 38.696 32.927 37.786 32.927L27.893 32.927ZM37.786 25.874L27.893 25.874C25.166 25.874 22.946 23.697 22.946 21.022L22.946 4.852C22.946 2.177 25.166 0 27.893 0L37.786 0C40.512 0 42.731 2.177 42.731 4.852L42.731 21.022C42.731 23.697 40.512 25.874 37.786 25.874ZM27.893 3.234C27.460 3.230 27.043 3.398 26.734 3.701C26.425 4.005 26.249 4.418 26.244 4.852L26.244 21.022C26.244 21.914 26.982 22.638 27.893 22.638L37.786 22.638C38.219 22.642 38.636 22.474 38.945 22.171C39.254 21.868 39.430 21.455 39.435 21.022L39.435 4.852C39.431 4.418 39.255 4.005 38.946 3.701C38.636 3.398 38.219 3.230 37.786 3.234L27.893 3.234Z" transform="translate(2.634, 2.400)" fill="currentColor"/>
</svg>