<svg xmlns="http://www.w3.org/2000/svg" viewBox="0 0 48 48" fill="none">
  <g fill="currentColor" transform="translate(0, 2.5)">
    <path d="M14 21.500C14 15.977 18.477 11.500 24 11.500C29.523 11.500 34 15.977 34 21.500C34 27.023 29.523 31.500 24 31.500C18.477 31.500 14 27.023 14 21.500ZM24 14.500C20.134 14.500 17 17.634 17 21.500C17 25.366 20.134 28.500 24 28.500C27.866 28.500 31 25.366 31 21.500C31 17.634 27.866 14.500 24 14.500Z"/>
    <path d="M38.109 8.811C42.605 11.840 46.104 16.276 48 21.500C44.398 31.424 35.012 38.500 24 38.500C12.988 38.500 3.602 31.424 0 21.500C1.896 16.276 5.395 11.840 9.891 8.811L7.701 5.018C7.425 4.540 7.589 3.928 8.067 3.652L8.933 3.152C9.411 2.876 10.023 3.040 10.299 3.518L12.474 7.284C15.517 5.720 18.909 4.755 22.500 4.544L22.500 1C22.500 0.448 22.948 0 23.500 0L24.500 0C25.052 0 25.500 0.448 25.500 1L25.500 4.544C29.091 4.755 32.483 5.720 35.526 7.284L37.701 3.518C37.977 3.040 38.589 2.876 39.067 3.152L39.933 3.652C40.411 3.928 40.575 4.540 40.299 5.018L38.109 8.811ZM3.219 21.500C6.667 29.755 14.695 35.500 24 35.500C33.305 35.500 41.333 29.755 44.781 21.500C41.333 13.245 33.305 7.500 24 7.500C14.695 7.500 6.667 13.245 3.219 21.500Z"/>
  </g>
</svg>