<svg xmlns="http://www.w3.org/2000/svg" viewBox="0 0 48 48" fill="none">
  <g fill="currentColor">
    <path d="M24 29.500C26.862 29.500 29.165 30.670 30.710 31.782C31.487 32.342 32.093 32.901 32.508 33.324C32.716 33.536 32.878 33.716 32.991 33.847C33.048 33.912 33.093 33.966 33.125 34.005C33.141 34.025 33.154 34.041 33.164 34.054C33.169 34.060 33.172 34.065 33.176 34.069C33.177 34.071 33.179 34.074 33.181 34.075L33.184 34.078L30.816 35.921C30.814 35.918 30.809 35.913 30.803 35.905C30.787 35.886 30.760 35.853 30.723 35.810C30.647 35.722 30.527 35.589 30.367 35.426C30.046 35.099 29.568 34.658 28.957 34.218C27.724 33.330 26.026 32.500 24 32.500C21.974 32.500 20.276 33.330 19.043 34.218C18.432 34.658 17.954 35.099 17.633 35.426C17.473 35.589 17.353 35.722 17.277 35.810C17.240 35.853 17.213 35.886 17.197 35.905C17.191 35.913 17.185 35.918 17.183 35.921L14.816 34.078L14.819 34.075C14.821 34.074 14.823 34.071 14.824 34.069C14.828 34.065 14.831 34.060 14.836 34.054C14.846 34.041 14.859 34.025 14.875 34.005C14.907 33.966 14.952 33.912 15.009 33.847C15.122 33.716 15.284 33.536 15.492 33.324C15.907 32.901 16.513 32.342 17.290 31.782C18.835 30.670 21.138 29.500 24 29.500Z"/>
    <path d="M19.038 19.079C20.237 20.079 20.237 21.921 19.038 22.921L13.960 27.152L12.040 24.848L16.658 21L12.040 17.152L13.960 14.848L19.038 19.079Z"/>
    <path d="M35.960 17.152L31.342 21L35.960 24.848L34.040 27.152L28.962 22.921C27.763 21.921 27.763 20.079 28.962 19.079L34.040 14.848L35.960 17.152Z"/>
    <path fill-rule="evenodd" d="M24 0C37.255 0 48 10.745 48 24C48 37.255 37.255 48 24 48C10.745 48 0 37.255 0 24C0 10.745 10.745 0 24 0ZM24 3C12.402 3 3 12.402 3 24C3 35.598 12.402 45 24 45C35.598 45 45 35.598 45 24C45 12.402 35.598 3 24 3Z"/>
  </g>
</svg>