<svg xmlns="http://www.w3.org/2000/svg" viewBox="0 0 48 48" fill="none">
  <g fill="currentColor" transform="translate(0, 2)">
    <path fill-rule="evenodd" d="M22.040 12.932C22.874 11.453 24.964 11.406 25.876 12.793L25.961 12.932L28.617 17.645L33.921 18.716C35.639 19.063 36.319 21.154 35.133 22.444L31.471 26.427L32.092 31.803C32.293 33.543 30.514 34.835 28.921 34.106L24 31.854L19.081 34.106C17.487 34.836 15.708 33.544 15.909 31.803L16.529 26.427L12.868 22.444C11.682 21.154 12.362 19.062 14.080 18.716L19.383 17.645L22.040 12.932ZM21.280 19.371L21 19.870L20.438 19.982L15.009 21.078L19.146 25.577L19.079 26.146L18.443 31.647L24.001 29.105L24.521 29.344L29.557 31.647L28.856 25.577L32.991 21.078L27.563 19.982L27.001 19.870L26.721 19.371L24 14.545L21.280 19.371Z"/>
    <path fill-rule="evenodd" d="M21.515 0C23.106 0 24.633 0.633 25.758 1.758L29.707 5.707C29.895 5.895 30.149 6 30.414 6L40 6C44.418 6 48 9.582 48 14L48 36C48 40.418 44.418 44 40 44L8 44C3.582 44 0 40.418 0 36L0 8C0 3.582 3.582 0 8 0L21.515 0ZM8 3C5.239 3 3 5.239 3 8L3 36C3 38.761 5.239 41 8 41L40 41C42.761 41 45 38.761 45 36L45 14C45 11.239 42.761 9 40 9L30.414 9C29.353 9 28.336 8.578 27.586 7.828L23.636 3.879C23.073 3.316 22.310 3 21.515 3L8 3Z"/>
  </g>
</svg>