<svg xmlns="http://www.w3.org/2000/svg" viewBox="0 0 48 48" fill="none">
  <g fill="currentColor" transform="translate(1, 4.315)">
    <path d="M13.096 6.808L20.501 0.884C23.120 -1.211 27 0.653 27 4.008L27 35.362C27 38.717 23.120 40.581 20.501 38.486L13.096 32.562C12.386 31.994 11.505 31.685 10.597 31.685L8 31.685C3.582 31.685 0 28.103 0 23.685L0 15.685C0 11.267 3.582 7.685 8 7.685L10.597 7.685C11.505 7.685 12.386 7.376 13.096 6.808Z"/>
    <path d="M37.896 34.180C37.506 33.789 37.508 33.158 37.878 32.748C44.575 25.339 44.575 14.029 37.878 6.620C37.508 6.211 37.506 5.579 37.896 5.189L38.604 4.481C38.994 4.091 39.630 4.090 40.003 4.497C47.867 13.081 47.867 26.287 40.003 34.871C39.630 35.278 38.994 35.278 38.604 34.887L37.896 34.180Z"/>
    <path d="M32.116 12.136C31.706 12.507 31.680 13.137 32.005 13.583C34.587 17.124 34.587 22.246 32.005 25.787C31.680 26.234 31.706 26.863 32.116 27.234L33.112 28.136C33.521 28.507 34.157 28.477 34.495 28.040C38.216 23.222 38.216 16.148 34.495 11.330C34.157 10.893 33.521 10.863 33.112 11.234L32.116 12.136Z"/>
  </g>
</svg>