<svg xmlns="http://www.w3.org/2000/svg" viewBox="0 0 48 48" fill="none">
  <g fill="currentColor" transform="translate(2, 2)">
    <path d="M39 8.045C41.835 8.502 44.000 10.960 44 13.924L44 34.117C43.999 39.575 39.575 44 34.117 44L13.909 44C10.946 43.999 8.489 41.834 8.031 39L31 39C35.418 39 39 35.418 39 31L39 8.045Z"/>
    <path d="M30.750 0C33.649 0 36.000 2.351 36 5.250L36 30.750C36 33.650 33.650 36 30.750 36L5.250 36C2.351 36 0 33.650 0 30.750L0 5.250C0.000 2.351 2.351 0 5.250 0L30.750 0Z"/>
  </g>
</svg>