<svg xmlns="http://www.w3.org/2000/svg" viewBox="0 0 48 48" fill="none">
  <path fill-rule="evenodd" d="M28.5 0L4.5 0C3.257 0 2.197 0.439 1.318 1.318C0.439 2.197 0 3.257 0 4.5L0 28.5C0 29.743 0.439 30.803 1.318 31.682C2.197 32.561 3.257 33 4.5 33L28.5 33C29.743 33 30.803 32.561 31.682 31.682C32.561 30.803 33 29.743 33 28.5L33 4.5C33 3.257 32.561 2.197 31.682 1.318C30.803 0.439 29.743 0 28.5 0ZM3.439 3.439C3.732 3.146 4.086 3 4.5 3L28.5 3C28.914 3 29.268 3.146 29.561 3.439C29.854 3.732 30 4.086 30 4.5L30 28.5C30 28.914 29.854 29.268 29.561 29.561C29.268 29.854 28.914 30 28.5 30L4.5 30C4.086 30 3.732 29.854 3.439 29.561C3.146 29.268 3 28.914 3 28.5L3 4.5C3 4.086 3.146 3.732 3.439 3.439Z" transform="translate(1.5, 13.5)" fill="currentColor"/>
  <path fill-rule="evenodd" d="M28.5 30L27 30C26.448 30 26 29.552 26 29C26 28.448 26.448 28 27 28L28.5 28C28.914 28 29.268 27.854 29.561 27.561C29.854 27.268 30 26.914 30 26.5L30 2.5C30 2.086 29.854 1.732 29.561 1.439C29.268 1.146 28.914 1 28.5 1L4.5 1C4.086 1 3.732 1.146 3.439 1.439C3.146 1.732 3 2.086 3 2.5L3 4C3 4.552 2.552 5 2 5C1.448 5 1 4.552 1 4L1 2.5C1 1.257 1.439 0.197 2.318 -0.682C3.197 -1.561 4.257 -2 5.5 -2L29.5 -2C30.743 -2 31.803 -1.561 32.682 -0.682C33.561 0.197 34 1.257 34 2.5L34 26.5C34 27.743 33.561 28.803 32.682 29.682C31.803 30.561 30.743 31 29.5 31L28.5 31L28.5 30Z" transform="translate(13.5, 1.5)" fill="currentColor"/>
</svg>