<svg xmlns="http://www.w3.org/2000/svg" viewBox="0 0 48 48" fill="none">
  <path d="M20.863 1.979C22.110 -0.660 25.890 -0.660 27.137 1.979L31.781 11.802C32.272 12.840 33.252 13.568 34.394 13.741L45.055 15.358C47.843 15.781 48.981 19.157 47.011 21.162L39.082 29.231C38.314 30.013 37.965 31.110 38.142 32.188L39.984 43.398C40.449 46.232 37.419 48.352 34.887 46.963L25.676 41.907C24.633 41.335 23.367 41.335 22.324 41.907L13.113 46.963C10.581 48.352 7.551 46.232 8.016 43.398L9.858 32.188C10.035 31.110 9.686 30.013 8.918 29.231L0.989 21.162C-0.981 19.157 0.157 15.781 2.945 15.358L13.606 13.741C14.748 13.568 15.728 12.840 16.219 11.802L20.863 1.979Z" fill="currentColor"/>
</svg>