<svg xmlns="http://www.w3.org/2000/svg" viewBox="0 0 48 48" fill="none">
  <g fill="currentColor" transform="translate(2, 2)">
    <path fill-rule="evenodd" d="M29.343 29.343C32.696 25.991 38.133 25.991 41.485 29.343C44.838 32.696 44.838 38.133 41.485 41.486C38.237 44.734 33.034 44.835 29.664 41.790L29.343 41.486C25.990 38.133 25.990 32.696 29.343 29.343ZM30.402 32.299C28.983 34.576 29.262 37.609 31.241 39.588C33.220 41.566 36.252 41.844 38.529 40.426L30.402 32.299ZM39.587 31.241C37.609 29.263 34.576 28.983 32.299 30.402L40.426 38.529C41.844 36.252 41.566 33.220 39.587 31.241Z"/>
    <path d="M36.487 0C40.044 0 42.926 2.883 42.926 6.439L42.926 26.307C41.969 25.517 40.883 24.877 39.707 24.418L39.707 6.439C39.707 4.661 38.266 3.220 36.487 3.220L6.439 3.220C4.661 3.220 3.219 4.661 3.219 6.439L3.219 36.488C3.219 38.266 4.661 39.707 6.439 39.707L24.418 39.707C24.877 40.884 25.517 41.969 26.308 42.927L6.439 42.927L6.108 42.918C2.815 42.751 0.175 40.111 0.008 36.819L0 36.488L0 6.439C0 2.883 2.883 0 6.439 0L36.487 0Z"/>
    <path d="M31.540 13.659L25.542 13.659L25.542 22.816L32.033 22.816L32.033 25.062L25.542 25.062L25.542 32.493L22.606 32.493L22.606 25.062L16.138 25.062L16.138 22.816L22.606 22.816L22.606 13.659L16.607 13.659L16.607 11.413L31.540 11.413L31.540 13.659Z"/>
    <path d="M14.830 28.321C15.735 28.024 16.616 27.547 17.471 26.889L17.471 29.431C15.958 30.452 14.123 31.332 11.967 32.072L11.967 19.410L9.820 19.410L9.820 17.090L14.830 17.090L14.830 28.321Z"/>
    <path d="M21.050 21.089L18.656 21.089L16.607 15.239L19.643 15.239L21.050 21.089Z"/>
    <path d="M29.492 21.089L27.097 21.089L28.504 15.239L31.540 15.239L29.492 21.089Z"/>
    <path d="M15.743 15.363L13.102 15.363L10.856 10.624L14.115 10.624L15.743 15.363Z"/>
  </g>
</svg>