<svg xmlns="http://www.w3.org/2000/svg" viewBox="0 0 48 48" fill="none">
  <path fill-rule="evenodd" d="M0.228 2.294C0.332 2.461 0.468 2.606 0.628 2.721C1.428 3.291 1.877 4.065 1.976 5.042L3.983 24.824C4.194 26.909 5.077 28.654 6.632 30.059C8.187 31.464 10.012 32.167 12.108 32.167L28.392 32.167C30.488 32.167 32.313 31.464 33.868 30.059C35.423 28.654 36.306 26.909 36.517 24.824L37.735 12.821C37.880 11.397 37.472 10.154 36.513 9.093C35.553 8.031 34.358 7.500 32.927 7.500L5.241 7.500L4.960 4.739C4.870 3.844 4.599 3.008 4.147 2.230C3.695 1.452 3.104 0.802 2.372 0.279C2.211 0.165 2.030 0.083 1.838 0.039C1.646 -0.006 1.447 -0.012 1.253 0.020C1.059 0.053 0.873 0.123 0.706 0.228C0.539 0.332 0.394 0.468 0.279 0.628C0.165 0.789 0.083 0.970 0.039 1.162C-0.006 1.354 -0.012 1.553 0.020 1.747C0.053 1.941 0.123 2.127 0.228 2.294ZM5.545 10.500L6.967 24.521C7.101 25.841 7.660 26.945 8.644 27.834C9.627 28.723 10.782 29.167 12.108 29.167L28.392 29.167C29.718 29.167 30.873 28.723 31.856 27.834C32.840 26.945 33.399 25.841 33.533 24.521L34.750 12.518C34.805 11.978 34.651 11.507 34.287 11.104C33.923 10.701 33.470 10.500 32.927 10.500L5.545 10.500Z" transform="translate(3.750, 5.417)" fill="currentColor"/>
  <circle cx="11.500" cy="41.500" r="2.500" fill="currentColor"/>
  <circle cx="36.500" cy="41.500" r="2.500" fill="currentColor"/>
</svg>