<svg xmlns="http://www.w3.org/2000/svg" viewBox="0 0 48 48" fill="none">
  <path d="M42 21C42 37.098 21 48 21 48C21 48 0 37.098 0 21C0 9.402 9.402 0 21 0C32.598 0 42 9.402 42 21ZM19.348 43.526C19.952 43.917 20.502 44.261 21 44.558C21.498 44.261 22.048 43.917 22.652 43.526C25.142 41.915 27.422 40.176 29.490 38.310C32.331 35.746 34.549 33.132 36.145 30.468C38.048 27.292 39 24.136 39 21C39 18.557 38.529 16.222 37.587 13.994C36.676 11.841 35.390 9.934 33.728 8.272C32.066 6.610 30.159 5.324 28.006 4.413C25.778 3.471 23.443 3 21 3C18.557 3 16.222 3.471 13.995 4.413C11.841 5.324 9.934 6.610 8.272 8.272C6.610 9.934 5.324 11.841 4.413 13.994C3.471 16.222 3 18.557 3 21C3 24.136 3.952 27.292 5.855 30.468C7.451 33.132 9.669 35.746 12.510 38.310C14.578 40.176 16.858 41.915 19.348 43.526ZM21 12C25.971 12 30 16.029 30 21C30 25.971 25.971 30 21 30C16.029 30 12 25.971 12 21C12 16.029 16.029 12 21 12ZM21 15C19.343 15 17.929 15.586 16.757 16.757C15.586 17.929 15 19.343 15 21C15 22.657 15.586 24.071 16.757 25.243C17.929 26.414 19.343 27 21 27C22.657 27 24.071 26.414 25.243 25.243C26.414 24.071 27 22.657 27 21C27 19.343 26.414 17.929 25.243 16.757C24.071 15.586 22.657 15 21 15Z" transform="translate(3, 0)" fill="currentColor"/>
</svg>