<svg xmlns="http://www.w3.org/2000/svg" viewBox="0 0 48 48" fill="none">
  <path fill-rule="evenodd" d="M19.510 3.715C19.716 0.736 23.065 -1.009 25.645 0.630L44.184 12.403C46.658 13.975 46.658 17.586 44.184 19.157L25.645 30.931C23.065 32.569 19.716 30.825 19.510 27.846L19.500 27.554L19.500 22.448L6.145 30.931C3.565 32.569 0.216 30.825 0.010 27.846L0 27.554L0 4.007L0.010 3.715C0.216 0.736 3.565 -1.009 6.145 0.630L19.500 9.110L19.500 4.007L19.510 3.715ZM4.536 3.162C3.870 2.739 3 3.218 3 4.007L3 27.554C3 28.342 3.870 28.821 4.536 28.398L19.500 18.894L19.500 12.665L4.536 3.162ZM22.500 27.554C22.500 28.342 23.370 28.821 24.036 28.398L42.575 16.624C43.193 16.231 43.193 15.329 42.575 14.937L24.036 3.162C23.370 2.739 22.500 3.218 22.500 4.007L22.500 27.554Z" transform="translate(1, 8.220)" fill="currentColor"/>
</svg>