<svg xmlns="http://www.w3.org/2000/svg" viewBox="0 0 48 48" fill="none">
  <g fill="currentColor">
    <path d="M19.238 0.399C17.350 -0.743 15 0.700 15 3.002C15 4.658 16.268 6 17.833 6L30.167 6C31.732 6 33 4.658 33 3.002C33 0.700 30.650 -0.743 28.762 0.399L26.241 1.924C24.852 2.763 23.148 2.763 21.759 1.924L19.238 0.399Z"/>
    <path d="M4.500 9C2.015 9 0 11.015 0 13.500C0 15.985 2.015 18 4.500 18L22.500 18L22.500 9L4.500 9Z"/>
    <path d="M43.500 18L25.500 18L25.500 9L43.500 9C45.985 9 48 11.015 48 13.500C48 15.985 45.985 18 43.500 18Z"/>
    <path d="M25.500 48L25.500 21L45 21L45 42C45 45.314 42.314 48 39 48L25.500 48Z"/>
    <path d="M9 48L22.500 48L22.500 21L3 21L3 42C3 45.314 5.686 48 9 48Z"/>
  </g>
</svg>