<svg xmlns="http://www.w3.org/2000/svg" viewBox="0 0 48 48" fill="none">
  <g fill="currentColor" transform="translate(1.991, 0)">
    <path d="M17.244 20.750C17.722 20.473 18.327 20.647 18.702 21.052C19.525 21.944 20.703 22.500 22.009 22.500C23.315 22.500 24.492 21.944 25.316 21.052C25.690 20.647 26.295 20.473 26.773 20.750L27.639 21.250C28.117 21.527 28.285 22.144 27.948 22.581C26.578 24.354 24.428 25.500 22.009 25.500C19.590 25.500 17.440 24.354 16.070 22.581C15.732 22.144 15.901 21.527 16.379 21.250L17.244 20.750Z"/>
    <path d="M29.588 32.221C35.173 29.435 39.009 23.666 39.009 17C39.009 7.611 31.398 0 22.009 0C12.620 0 5.009 7.611 5.009 17C5.009 23.665 8.845 29.435 14.430 32.221C7.988 34.363 2.759 39.161 0.042 45.317C-0.101 45.641 0.140 46 0.495 46L2.397 46C2.783 46 3.133 45.777 3.309 45.433C6.789 38.645 13.856 34 22.008 34C30.161 34 37.228 38.645 40.708 45.433C40.884 45.777 41.233 46 41.620 46L43.522 46C43.877 46 44.118 45.641 43.975 45.317C41.258 39.162 36.029 34.364 29.588 32.221ZM22.009 31C14.277 31 8.009 24.732 8.009 17C8.009 9.268 14.277 3 22.009 3C29.741 3 36.009 9.268 36.009 17C36.009 24.732 29.741 31 22.009 31Z"/>
  </g>
</svg>