<svg xmlns="http://www.w3.org/2000/svg" viewBox="0 0 48 48" fill="none">
  <path fill-rule="evenodd" d="M23.780 0C11.510 0 3.104 6.855 0.336 17.393C-0.112 19.101 -0.112 20.899 0.336 22.607C3.104 33.145 11.510 40 23.780 40C36.050 40 44.455 33.145 47.223 22.607C47.672 20.899 47.672 19.101 47.223 17.393C44.455 6.855 36.050 0 23.780 0ZM36.945 32.471C33.416 35.157 29.028 36.501 23.780 36.501C18.532 36.501 14.143 35.157 10.615 32.471C7.224 29.889 4.926 26.305 3.721 21.718C3.420 20.573 3.420 19.427 3.721 18.282C4.926 13.695 7.224 10.111 10.615 7.529C14.143 4.843 18.532 3.499 23.780 3.499C29.028 3.499 33.416 4.843 36.945 7.529C40.336 10.111 42.634 13.695 43.839 18.282C44.139 19.427 44.139 20.573 43.839 21.718C42.634 26.305 40.336 29.889 36.945 32.471ZM33.114 20C33.114 14.846 28.935 10.667 23.780 10.667C18.626 10.667 14.447 14.846 14.447 20C14.447 25.155 18.626 29.334 23.780 29.334C28.935 29.334 33.114 25.155 33.114 20ZM27.740 23.960C26.646 25.053 25.327 25.600 23.780 25.600C22.234 25.600 20.914 25.053 19.821 23.960C18.727 22.866 18.181 21.547 18.181 20C18.181 18.454 18.727 17.134 19.821 16.041C20.914 14.947 22.234 14.401 23.780 14.401C25.327 14.401 26.646 14.947 27.740 16.041C28.833 17.134 29.380 18.454 29.380 20C29.380 21.547 28.833 22.866 27.740 23.960Z" transform="translate(0.220, 4)" fill="currentColor"/>
</svg>