<svg xmlns="http://www.w3.org/2000/svg" viewBox="0 0 48 48" fill="none">
  <g fill="currentColor" transform="translate(2, 2)">
    <path fill-rule="evenodd" d="M16 24C18.209 24 20 25.791 20 28L20 40C20 42.140 18.319 43.888 16.206 43.995L16 44L4 44L3.794 43.995C1.749 43.891 0.109 42.251 0.005 40.206L0 40L0 28C0 25.791 1.791 24 4 24L16 24ZM4 27C3.448 27 3 27.448 3 28L3 40C3 40.552 3.448 41 4 41L16 41C16.552 41 17 40.552 17 40L17 28C17 27.448 16.552 27 16 27L4 27Z"/>
    <path fill-rule="evenodd" d="M26.075 26.075C30.176 21.975 36.824 21.975 40.925 26.075C45.025 30.176 45.025 36.824 40.925 40.925C36.952 44.897 30.589 45.021 26.467 41.297L26.075 40.925C21.975 36.824 21.975 30.176 26.075 26.075ZM27.241 29.362C25.312 32.274 25.630 36.238 28.196 38.804C30.762 41.369 34.725 41.687 37.637 39.758L27.241 29.362ZM38.804 28.196C36.238 25.630 32.274 25.312 29.362 27.241L39.758 37.637C41.687 34.725 41.369 30.762 38.804 28.196Z"/>
    <path fill-rule="evenodd" d="M16 0C18.209 0 20 1.791 20 4L20 16C20 18.140 18.319 19.888 16.206 19.995L16 20L4 20L3.794 19.995C1.749 19.891 0.109 18.251 0.005 16.206L0 16L0 4C0 1.791 1.791 0 4 0L16 0ZM4 3C3.448 3 3 3.448 3 4L3 16C3 16.552 3.448 17 4 17L16 17C16.552 17 17 16.552 17 16L17 4C17 3.448 16.552 3 16 3L4 3Z"/>
    <path fill-rule="evenodd" d="M40 0C42.209 0 44 1.791 44 4L44 16C44 18.140 42.319 19.888 40.206 19.995L40 20L28 20L27.794 19.995C25.749 19.891 24.109 18.251 24.005 16.206L24 16L24 4C24 1.791 25.791 0 28 0L40 0ZM28 3C27.448 3 27 3.448 27 4L27 16C27 16.552 27.448 17 28 17L40 17C40.552 17 41 16.552 41 16L41 4C41 3.448 40.552 3 40 3L28 3Z"/>
  </g>
</svg>