<svg xmlns="http://www.w3.org/2000/svg" viewBox="0 0 48 48" fill="none">
  <g fill="currentColor" transform="translate(1.080, 0.500)">
    <path d="M22.421 0C31.809 0 39.421 7.611 39.421 17C39.421 18.941 39.094 20.810 38.493 22.551C38.403 22.812 38.113 22.942 37.855 22.844L35.986 22.135C35.728 22.037 35.599 21.749 35.687 21.487C36.163 20.080 36.421 18.572 36.421 17C36.421 9.268 30.152 3 22.421 3C14.689 3 8.421 9.268 8.421 17C8.421 24.564 14.420 30.727 21.920 30.991C22.196 31.001 22.421 31.224 22.421 31.500L22.421 33.500C22.421 33.776 22.196 34 21.920 34.006C13.891 34.185 6.920 38.666 3.226 45.240C3.137 45.400 2.969 45.500 2.786 45.500L0.471 45.500C0.124 45.500 -0.106 45.140 0.050 44.829C3.034 38.863 8.338 34.255 14.781 32.189C9.229 29.392 5.421 23.641 5.421 17C5.421 7.611 13.032 0 22.421 0Z"/>
    <path fill-rule="evenodd" d="M27.849 28.429C31.755 24.524 38.087 24.524 41.992 28.429C45.897 32.334 45.897 38.666 41.992 42.571C38.209 46.354 32.148 46.472 28.222 42.926L27.849 42.571C23.944 38.666 23.944 32.334 27.849 28.429ZM28.807 31.154C26.720 34.083 26.989 38.176 29.617 40.804C32.245 43.431 36.336 43.699 39.265 41.612L28.807 31.154ZM40.224 30.196C37.597 27.569 33.504 27.300 30.575 29.387L41.033 39.845C43.120 36.916 42.852 32.824 40.224 30.196Z"/>
  </g>
</svg>