<svg xmlns="http://www.w3.org/2000/svg" style="display:none">
<symbol id="icon-add-plus" viewBox="0 0 48 48"><path d="M22.495 17.495L39 17.495C39.552 17.495 40 17.943 40 18.495L40 21.495C40 22.047 39.552 22.495 39 22.495L22.495 22.495L22.495 39C22.495 39.552 22.047 40 21.495 40L18.495 40C17.943 40 17.495 39.552 17.495 39L17.495 22.495L1 22.495C0.448 22.495 0 22.047 0 21.495L0 18.495C0 17.943 0.448 17.495 1 17.495L17.495 17.495L17.495 1C17.495 0.448 17.943 0 18.495 0L21.495 0C22.047 0 22.495 0.448 22.495 1L22.495 17.495Z" transform="translate(4, 4.005)" fill="currentColor"/></symbol>
<symbol id="icon-add" viewBox="0 0 48 48"><path d="M13.5 1C13.5 0.448 13.052 0 12.5 0L11.5 0C10.948 0 10.5 0.448 10.5 1L10.5 10.5L1 10.5C0.448 10.5 0 10.948 0 11.5L0 12.5C0 13.052 0.448 13.5 1 13.5L10.5 13.5L10.5 23C10.5 23.552 10.948 24 11.5 24L12.5 24C13.052 24 13.5 23.552 13.5 23L13.5 13.5L23 13.5C23.552 13.5 24 13.052 24 12.5L24 11.5C24 10.948 23.552 10.5 23 10.5L13.5 10.5L13.5 1Z" transform="translate(12, 12)" fill="currentColor"/></symbol>
<symbol id="icon-arrow-down-fill" viewBox="0 0 48 48"><path d="M12.577 19.613C13.777 21.099 16.042 21.099 17.243 19.613L29.147 4.886C30.733 2.924 29.337 0 26.814 0L3.006 0C0.483 0 -0.913 2.924 0.673 4.886L12.577 19.613Z" transform="translate(9.090, 13.636)" fill="currentColor"/></symbol>
<symbol id="icon-arrow-down" viewBox="0 0 48 48"><path d="M0.272 1.078C-0.099 1.471 -0.089 2.088 0.293 2.470L14.715 16.892C15.105 17.283 15.739 17.283 16.129 16.892L30.621 2.400C31.017 2.004 31.011 1.361 30.607 0.972L29.886 0.279C29.494 -0.098 28.871 -0.092 28.486 0.293L15.422 13.357L2.393 0.328C1.994 -0.071 1.345 -0.061 0.958 0.349L0.272 1.078Z" transform="translate(8.526, 15.401)" fill="currentColor"/></symbol>
<symbol id="icon-arrow-left" viewBox="0 0 48 48"><path d="M16.111 0.272C15.717 -0.099 15.1 -0.089 14.718 0.293L0.293 14.72C-0.098 15.111 -0.098 15.744 0.293 16.135L14.788 30.633C15.184 31.029 15.828 31.023 16.216 30.619L16.909 29.898C17.287 29.505 17.281 28.882 16.896 28.497L3.829 15.428L16.860 2.394C17.259 1.995 17.25 1.345 16.839 0.958L16.111 0.272Z" transform="translate(14.414, 8.578)" fill="currentColor"/></symbol>
<symbol id="icon-arrow-right-fill" viewBox="0 0 48 48"><g transform="matrix(0,1,-1,0,48.671,-38.601)">
    <path d="M23.370 7.158L33.079 22.935C35.200 26.381 32.721 30.818 28.674 30.818L9.256 30.818C5.209 30.818 2.730 26.381 4.851 22.935L14.560 7.158C16.580 3.876 21.350 3.876 23.370 7.158Z" transform="translate(43.636, 5.035)" fill="currentColor"/>
  </g></symbol>
<symbol id="icon-arrow-right" viewBox="0 0 48 48"><path d="M1.078 30.642C1.471 31.013 2.088 31.004 2.470 30.621L16.892 16.199C17.283 15.809 17.283 15.176 16.892 14.785L2.400 0.293C2.004 -0.103 1.361 -0.097 0.972 0.307L0.279 1.028C-0.098 1.420 -0.092 2.043 0.293 2.428L13.357 15.492L0.328 28.521C-0.071 28.920 -0.061 29.569 0.349 29.956L1.078 30.642Z" transform="translate(16.401, 8.613)" fill="currentColor"/></symbol>
<symbol id="icon-arrow-up-fill" viewBox="0 0 48 48"><path d="M12.577 1.114C13.777 -0.371 16.042 -0.371 17.243 1.114L29.147 15.842C30.733 17.804 29.337 20.728 26.814 20.728L3.006 20.728C0.483 20.728 -0.913 17.804 0.673 15.842L12.577 1.114Z" transform="translate(9.090, 13.636)" fill="currentColor"/></symbol>
<symbol id="icon-arrow-up" viewBox="0 0 48 48"><path d="M30.642 16.108C31.013 15.714 31.004 15.097 30.621 14.715L16.199 0.293C15.809 -0.098 15.176 -0.098 14.785 0.293L0.293 14.785C-0.103 15.181 -0.097 15.825 0.307 16.213L1.028 16.906C1.420 17.284 2.043 17.278 2.428 16.892L15.492 3.828L28.521 16.857C28.920 17.256 29.569 17.246 29.956 16.836L30.642 16.108Z" transform="translate(8.56, 15.414)" fill="currentColor"/></symbol>
<symbol id="icon-autoplay" viewBox="0 0 48 48"><g fill="currentColor">
    <path d="M24 48C10.745 48 0 37.255 0 24L0 13.500C0 12.895 0.363 12.350 0.921 12.116C1.478 11.883 2.122 12.007 2.553 12.431L11.909 21.646C12.302 22.033 12.307 22.666 11.920 23.060L11.218 23.772C10.830 24.166 10.197 24.171 9.804 23.783L3 17.083L3 24C3 35.598 12.402 45 24 45C35.598 45 45 35.598 45 24C45 12.402 35.598 3 24 3C18.621 3 13.717 5.021 10 8.347L9.628 8.680C9.216 9.049 8.584 9.014 8.216 8.602L7.549 7.857C7.181 7.445 7.216 6.813 7.627 6.445L8 6.111C12.245 2.312 17.854 0 24 0C37.255 0 48 10.745 48 24C48 37.255 37.255 48 24 48Z"/>
    <path d="M22.500 30.063C21.167 30.832 19.500 29.870 19.500 28.330L19.500 19.670C19.500 18.130 21.167 17.168 22.500 17.938L30 22.268C31.333 23.037 31.333 24.963 30 25.732L22.500 30.063Z"/>
  </g></symbol>
<symbol id="icon-bell" viewBox="0 0 48 48"><g fill="currentColor" transform="translate(4.733, 0)">
    <path fill-rule="evenodd" d="M20.766 1C20.766 0.448 20.319 0 19.766 0L18.766 0C18.214 0 17.766 0.448 17.766 1L17.766 4.067C9.357 4.825 2.767 11.893 2.767 20.500L2.767 31.111C2.767 32.353 2.477 33.578 1.922 34.689L0.214 38.106C-0.451 39.435 0.516 41 2.003 41L36.530 41C38.017 41 38.984 39.435 38.319 38.106L36.611 34.689C36.056 33.578 35.767 32.353 35.767 31.111L35.767 20.500C35.767 11.893 29.176 4.825 20.766 4.067L20.766 1ZM19.267 7C11.811 7 5.767 13.044 5.767 20.500L5.767 31.111C5.767 32.819 5.369 34.503 4.605 36.031L3.621 38L34.912 38L33.928 36.031C33.164 34.503 32.767 32.819 32.767 31.111L32.767 20.500C32.767 13.044 26.722 7 19.267 7Z"/>
    <path d="M14.266 48C13.714 48 13.266 47.552 13.266 47L13.266 46C13.266 45.448 13.714 45 14.266 45L24.266 45C24.819 45 25.266 45.448 25.266 46L25.266 47C25.266 47.552 24.819 48 24.266 48L14.266 48Z"/>
  </g></symbol>
<symbol id="icon-block" viewBox="0 0 48 48"><g fill="currentColor" transform="translate(1.080, 0.500)">
    <path d="M22.421 0C31.809 0 39.421 7.611 39.421 17C39.421 18.941 39.094 20.810 38.493 22.551C38.403 22.812 38.113 22.942 37.855 22.844L35.986 22.135C35.728 22.037 35.599 21.749 35.687 21.487C36.163 20.080 36.421 18.572 36.421 17C36.421 9.268 30.152 3 22.421 3C14.689 3 8.421 9.268 8.421 17C8.421 24.564 14.420 30.727 21.920 30.991C22.196 31.001 22.421 31.224 22.421 31.500L22.421 33.500C22.421 33.776 22.196 34 21.920 34.006C13.891 34.185 6.920 38.666 3.226 45.240C3.137 45.400 2.969 45.500 2.786 45.500L0.471 45.500C0.124 45.500 -0.106 45.140 0.050 44.829C3.034 38.863 8.338 34.255 14.781 32.189C9.229 29.392 5.421 23.641 5.421 17C5.421 7.611 13.032 0 22.421 0Z"/>
    <path fill-rule="evenodd" d="M27.849 28.429C31.755 24.524 38.087 24.524 41.992 28.429C45.897 32.334 45.897 38.666 41.992 42.571C38.209 46.354 32.148 46.472 28.222 42.926L27.849 42.571C23.944 38.666 23.944 32.334 27.849 28.429ZM28.807 31.154C26.720 34.083 26.989 38.176 29.617 40.804C32.245 43.431 36.336 43.699 39.265 41.612L28.807 31.154ZM40.224 30.196C37.597 27.569 33.504 27.300 30.575 29.387L41.033 39.845C43.120 36.916 42.852 32.824 40.224 30.196Z"/>
  </g></symbol>
<symbol id="icon-browse" viewBox="0 0 48 48"><path fill-rule="evenodd" d="M23.780 0C11.510 0 3.104 6.855 0.336 17.393C-0.112 19.101 -0.112 20.899 0.336 22.607C3.104 33.145 11.510 40 23.780 40C36.050 40 44.455 33.145 47.223 22.607C47.672 20.899 47.672 19.101 47.223 17.393C44.455 6.855 36.050 0 23.780 0ZM36.945 32.471C33.416 35.157 29.028 36.501 23.780 36.501C18.532 36.501 14.143 35.157 10.615 32.471C7.224 29.889 4.926 26.305 3.721 21.718C3.420 20.573 3.420 19.427 3.721 18.282C4.926 13.695 7.224 10.111 10.615 7.529C14.143 4.843 18.532 3.499 23.780 3.499C29.028 3.499 33.416 4.843 36.945 7.529C40.336 10.111 42.634 13.695 43.839 18.282C44.139 19.427 44.139 20.573 43.839 21.718C42.634 26.305 40.336 29.889 36.945 32.471ZM33.114 20C33.114 14.846 28.935 10.667 23.780 10.667C18.626 10.667 14.447 14.846 14.447 20C14.447 25.155 18.626 29.334 23.780 29.334C28.935 29.334 33.114 25.155 33.114 20ZM27.740 23.960C26.646 25.053 25.327 25.600 23.780 25.600C22.234 25.600 20.914 25.053 19.821 23.960C18.727 22.866 18.181 21.547 18.181 20C18.181 18.454 18.727 17.134 19.821 16.041C20.914 14.947 22.234 14.401 23.780 14.401C25.327 14.401 26.646 14.947 27.740 16.041C28.833 17.134 29.380 18.454 29.380 20C29.380 21.547 28.833 22.866 27.740 23.960Z" transform="translate(0.220, 4)" fill="currentColor"/></symbol>
<symbol id="icon-bullet" viewBox="0 0 48 48"><g fill="currentColor" transform="translate(2, 2)">
    <path d="M17.110 18.670L11.650 18.670L11.650 23.290L17.170 23.290L17.170 29.380C17.170 31.520 16.720 33.030 15.820 33.910C14.860 34.850 13.110 35.380 10.570 35.500L10.570 33.220C12.150 33.060 13.200 32.710 13.720 32.170C14.180 31.690 14.410 30.810 14.410 29.530L14.410 25.450L8.980 25.450L8.980 16.510L14.440 16.510L14.440 12.070L8.680 12.070L8.680 9.820L17.110 9.820L17.110 18.670Z"/>
    <path fill-rule="evenodd" d="M24.730 11.920L28.870 11.920L30.040 8.500L33.070 8.500L31.420 11.920L34.240 11.920L34.240 25.210L28.090 25.210L28.090 27.910L35.410 27.910L35.410 30.130L28.090 30.130L28.090 35.500L25.450 35.500L25.450 30.130L18.370 30.130L18.370 27.910L25.450 27.910L25.450 25.210L19.240 25.210L19.240 11.920L22.210 11.920L20.560 8.500L23.590 8.500L24.730 11.920ZM21.670 23.230L25.450 23.230L25.450 19.450L21.670 19.450L21.670 23.230ZM28.090 23.230L31.810 23.230L31.810 19.450L28.090 19.450L28.090 23.230ZM21.670 17.530L25.450 17.530L25.450 13.930L21.670 13.930L21.670 17.530ZM28.090 17.530L31.810 17.530L31.810 13.930L28.090 13.930L28.090 17.530Z"/>
    <path fill-rule="evenodd" d="M36.412 0.011C40.639 0.225 44 3.720 44 8L44 36C44 40.418 40.639 43.782 36.412 43.989L36 44L8 44C3.582 44 0 40.418 0 36L0 8C0 3.582 3.582 0 8 0L36 0L36.412 0.011ZM8 3C5.239 3 3 5.239 3 8L3 36C3 38.761 5.239 41 8 41L36 41C38.761 41 41 38.761 41 36L41 8C41 5.239 38.761 3 36 3L8 3Z"/>
  </g></symbol>
<symbol id="icon-cart" viewBox="0 0 48 48"><path fill-rule="evenodd" d="M0.228 2.294C0.332 2.461 0.468 2.606 0.628 2.721C1.428 3.291 1.877 4.065 1.976 5.042L3.983 24.824C4.194 26.909 5.077 28.654 6.632 30.059C8.187 31.464 10.012 32.167 12.108 32.167L28.392 32.167C30.488 32.167 32.313 31.464 33.868 30.059C35.423 28.654 36.306 26.909 36.517 24.824L37.735 12.821C37.880 11.397 37.472 10.154 36.513 9.093C35.553 8.031 34.358 7.500 32.927 7.500L5.241 7.500L4.960 4.739C4.870 3.844 4.599 3.008 4.147 2.230C3.695 1.452 3.104 0.802 2.372 0.279C2.211 0.165 2.030 0.083 1.838 0.039C1.646 -0.006 1.447 -0.012 1.253 0.020C1.059 0.053 0.873 0.123 0.706 0.228C0.539 0.332 0.394 0.468 0.279 0.628C0.165 0.789 0.083 0.970 0.039 1.162C-0.006 1.354 -0.012 1.553 0.020 1.747C0.053 1.941 0.123 2.127 0.228 2.294ZM5.545 10.500L6.967 24.521C7.101 25.841 7.660 26.945 8.644 27.834C9.627 28.723 10.782 29.167 12.108 29.167L28.392 29.167C29.718 29.167 30.873 28.723 31.856 27.834C32.840 26.945 33.399 25.841 33.533 24.521L34.750 12.518C34.805 11.978 34.651 11.507 34.287 11.104C33.923 10.701 33.470 10.500 32.927 10.500L5.545 10.500Z" transform="translate(3.750, 5.417)" fill="currentColor"/>
  <circle cx="11.500" cy="41.500" r="2.500" fill="currentColor"/>
  <circle cx="36.500" cy="41.500" r="2.500" fill="currentColor"/></symbol>
<symbol id="icon-category" viewBox="0 0 48 48"><g fill="currentColor" transform="translate(4, 4)">
    <path d="M0 1C0 0.448 0.448 0 1 0L39 0C39.552 0 40 0.448 40 1L40 2C40 2.552 39.552 3 39 3L1 3C0.448 3 0 2.552 0 2L0 1Z"/>
    <path d="M0 19.5C0 18.948 0.448 18.5 1 18.5L39 18.5C39.552 18.5 40 18.948 40 19.5L40 20.5C40 21.052 39.552 21.5 39 21.5L1 21.5C0.448 21.5 0 21.052 0 20.5L0 19.5Z"/>
    <path d="M40 38C40 37.448 39.552 37 39 37L1 37C0.448 37 0 37.448 0 38L0 39C0 39.552 0.448 40 1 40L39 40C39.552 40 40 39.552 40 39L40 38Z"/>
  </g></symbol>
<symbol id="icon-chat" viewBox="0 0 48 48"><path fill-rule="evenodd" d="M12.216 40.887C15.432 42.502 19.103 43.416 23 43.416C35.703 43.416 46 33.697 46 21.708C46 9.719 35.703 0 23 0C10.297 0 0 9.719 0 21.708C0 26.596 1.712 31.107 4.600 34.735L4.600 42.071C4.600 43.647 6.337 44.604 7.669 43.762L12.216 40.887ZM41.437 14.493C42.466 16.789 42.980 19.194 42.980 21.708C42.980 24.222 42.466 26.627 41.437 28.923C40.437 31.154 39.021 33.134 37.191 34.862C35.347 36.602 33.228 37.949 30.833 38.906C28.344 39.899 25.733 40.396 23 40.396C19.647 40.396 16.503 39.660 13.570 38.188L12.045 37.422L7.620 40.220L7.620 33.680L6.963 32.854C4.334 29.552 3.020 25.837 3.020 21.708C3.020 19.194 3.534 16.789 4.563 14.493C5.563 12.262 6.979 10.282 8.809 8.554C10.653 6.815 12.772 5.467 15.167 4.511C17.656 3.517 20.267 3.020 23 3.020C25.733 3.020 28.344 3.517 30.833 4.511C33.228 5.467 35.347 6.815 37.191 8.554C39.021 10.282 40.437 12.262 41.437 14.493ZM16.727 19.701C17.882 19.701 18.818 20.629 18.818 21.773C18.818 22.917 17.882 23.844 16.727 23.844C15.572 23.844 14.636 22.917 14.636 21.773C14.636 20.629 15.572 19.701 16.727 19.701ZM31.364 21.773C31.364 20.629 30.428 19.701 29.273 19.701C28.118 19.701 27.182 20.629 27.182 21.773C27.182 22.917 28.118 23.844 29.273 23.844C30.428 23.844 31.364 22.917 31.364 21.773Z" transform="translate(1, 2)" fill="currentColor"/></symbol>
<symbol id="icon-clock-fill" viewBox="0 0 48 48"><g fill="currentColor" transform="translate(1.5, 2.5)">
    <path fill-rule="evenodd" d="M22.500 2.230C33.701 2.230 42.781 11.357 42.781 22.615C42.781 33.873 33.701 43 22.500 43C11.299 43 2.219 33.873 2.219 22.615C2.219 11.357 11.299 2.230 22.500 2.230ZM21.534 10.481C21.001 10.481 20.569 10.916 20.569 11.452L20.569 21.409C20.568 21.667 20.467 21.914 20.286 22.096L13.608 28.807C13.231 29.186 13.231 29.801 13.608 30.180L14.974 31.552C15.351 31.931 15.962 31.931 16.339 31.552L24.149 23.703C24.330 23.521 24.432 23.274 24.432 23.017L24.432 11.452C24.431 10.916 23.999 10.481 23.466 10.481L21.534 10.481Z"/>
    <path d="M9.093 0.132C9.551 -0.144 10.139 0.028 10.397 0.498L11.329 2.201C11.586 2.670 11.414 3.259 10.959 3.537C7.924 5.396 5.368 7.965 3.519 11.015C3.242 11.472 2.657 11.645 2.190 11.387L0.496 10.450C0.028 10.191 -0.143 9.600 0.132 9.140C2.337 5.449 5.421 2.349 9.093 0.132Z"/>
    <path d="M34.602 0.498C34.860 0.028 35.448 -0.144 35.906 0.132C39.578 2.349 42.663 5.449 44.869 9.140C45.143 9.600 44.971 10.191 44.504 10.450L42.811 11.387C42.344 11.645 41.758 11.472 41.481 11.015C39.632 7.965 37.075 5.396 34.040 3.537C33.585 3.259 33.415 2.670 33.672 2.201L34.602 0.498Z"/>
  </g></symbol>
<symbol id="icon-close" viewBox="0 0 48 48"><path d="M15.146 17.268L27.879 30C28.269 30.391 28.902 30.391 29.293 30L30 29.293C30.391 28.902 30.391 28.269 30 27.879L17.268 15.146L30 2.414C30.391 2.024 30.391 1.391 30 1L29.293 0.293C28.902 -0.098 28.269 -0.098 27.879 0.293L15.146 13.025L2.414 0.293C2.024 -0.098 1.391 -0.098 1 0.293L0.293 1C-0.098 1.391 -0.098 2.024 0.293 2.414L13.025 15.146L0.293 27.879C-0.098 28.269 -0.098 28.902 0.293 29.293L1 30C1.391 30.391 2.024 30.391 2.414 30L15.146 17.268Z" transform="translate(8.854, 8.854)" fill="currentColor"/></symbol>
<symbol id="icon-comment-check" viewBox="0 0 48 48"><g fill="currentColor" transform="translate(2, 2)">
    <path d="M37.400 0C41.045 0 44 2.955 44 6.600L44 26.965C43.019 26.155 41.906 25.499 40.700 25.028L40.700 6.600C40.700 4.777 39.223 3.300 37.400 3.300L6.600 3.300C4.777 3.300 3.300 4.777 3.300 6.600L3.300 37.400C3.300 39.223 4.777 40.700 6.600 40.700L25.028 40.700C25.499 41.906 26.155 43.018 26.966 44L6.600 44L6.261 43.991C2.886 43.820 0.180 41.114 0.009 37.739L0 37.400L0 6.600C0 2.955 2.955 0 6.600 0L37.400 0Z"/>
    <path d="M32.329 14L26.181 14L26.181 23.387L32.835 23.387L32.835 25.689L26.181 25.689L26.181 33.305L23.171 33.305L23.171 25.689L16.542 25.689L16.542 23.387L23.171 23.387L23.171 14L17.022 14L17.022 11.698L32.329 11.698L32.329 14Z"/>
    <path d="M15.201 29.029C16.129 28.725 17.031 28.236 17.908 27.561L17.908 30.167C16.357 31.213 14.476 32.115 12.267 32.874L12.267 19.896L10.065 19.896L10.065 17.517L15.201 17.517L15.201 29.029Z"/>
    <path d="M21.577 21.617L19.122 21.617L17.022 15.620L20.134 15.620L21.577 21.617Z"/>
    <path d="M30.230 21.617L27.775 21.617L29.217 15.620L32.329 15.620L30.230 21.617Z"/>
    <path d="M16.137 15.747L13.430 15.747L11.128 10.889L14.468 10.889L16.137 15.747Z"/>
  </g>
  <path d="M15.414 2.828L6.768 11.475C6.378 11.865 5.744 11.865 5.354 11.475L0.707 6.828C0.317 6.438 0.317 5.804 0.707 5.414L1.414 4.707C1.804 4.317 2.438 4.317 2.828 4.707L6.061 7.939L13.293 0.707C13.683 0.317 14.317 0.317 14.707 0.707L15.414 1.414C15.804 1.804 15.804 2.438 15.414 2.828Z" transform="translate(28.939, 31.939)" fill="currentColor"/></symbol>
<symbol id="icon-comment-default" viewBox="0 0 50 50"><path
    fill-rule="evenodd"
    clip-rule="evenodd"
    d="M13.5 0C20.9558 0 27 5.82025 27 13C27 20.1797 20.9558 26 13.5 26C13.3998 26 13.2999 25.9989 13.2002 25.9969L13.198 26H2.13308C1.40272 26 0.98054 25.1717 1.40971 24.5807L3.48723 21.7199C1.32001 19.4136 0 16.3553 0 13C0 5.82025 6.04416 0 13.5 0ZM6.7988 13C6.7988 11.9396 7.65841 11.08 8.7188 11.08C9.77919 11.08 10.6388 11.9396 10.6388 13C10.6388 14.0603 9.77919 14.92 8.7188 14.92C7.65841 14.92 6.7988 14.0603 6.7988 13ZM15.7588 13C15.7588 11.9396 16.6184 11.08 17.6788 11.08C18.7391 11.08 19.5988 11.9396 19.5988 13C19.5988 14.0603 18.7391 14.92 17.6788 14.92C16.6184 14.92 15.7588 14.0603 15.7588 13Z"
    transform="translate(12 12)"
    fill="currentColor"
  />
  <path
    fill-rule="evenodd"
    clip-rule="evenodd"
    d="M1.99679 0.000337C4.47995 2.36205 7.96485 3.83595 11.8262 3.85H0.895945C0.159074 3.85 -0.2614 3.00861 0.180972 2.4193L1.99679 0.000337Z"
    transform="translate(13.271 34.157)"
    fill="currentColor"
    fill-opacity="0.35"
  /></symbol>
<symbol id="icon-comment-mute" viewBox="0 0 48 48"><g fill="currentColor" transform="translate(2, 2)">
    <path fill-rule="evenodd" d="M29.343 29.343C32.696 25.991 38.133 25.991 41.485 29.343C44.838 32.696 44.838 38.133 41.485 41.486C38.237 44.734 33.034 44.835 29.664 41.790L29.343 41.486C25.990 38.133 25.990 32.696 29.343 29.343ZM30.402 32.299C28.983 34.576 29.262 37.609 31.241 39.588C33.220 41.566 36.252 41.844 38.529 40.426L30.402 32.299ZM39.587 31.241C37.609 29.263 34.576 28.983 32.299 30.402L40.426 38.529C41.844 36.252 41.566 33.220 39.587 31.241Z"/>
    <path d="M36.487 0C40.044 0 42.926 2.883 42.926 6.439L42.926 26.307C41.969 25.517 40.883 24.877 39.707 24.418L39.707 6.439C39.707 4.661 38.266 3.220 36.487 3.220L6.439 3.220C4.661 3.220 3.219 4.661 3.219 6.439L3.219 36.488C3.219 38.266 4.661 39.707 6.439 39.707L24.418 39.707C24.877 40.884 25.517 41.969 26.308 42.927L6.439 42.927L6.108 42.918C2.815 42.751 0.175 40.111 0.008 36.819L0 36.488L0 6.439C0 2.883 2.883 0 6.439 0L36.487 0Z"/>
    <path d="M31.540 13.659L25.542 13.659L25.542 22.816L32.033 22.816L32.033 25.062L25.542 25.062L25.542 32.493L22.606 32.493L22.606 25.062L16.138 25.062L16.138 22.816L22.606 22.816L22.606 13.659L16.607 13.659L16.607 11.413L31.540 11.413L31.540 13.659Z"/>
    <path d="M14.830 28.321C15.735 28.024 16.616 27.547 17.471 26.889L17.471 29.431C15.958 30.452 14.123 31.332 11.967 32.072L11.967 19.410L9.820 19.410L9.820 17.090L14.830 17.090L14.830 28.321Z"/>
    <path d="M21.050 21.089L18.656 21.089L16.607 15.239L19.643 15.239L21.050 21.089Z"/>
    <path d="M29.492 21.089L27.097 21.089L28.504 15.239L31.540 15.239L29.492 21.089Z"/>
    <path d="M15.743 15.363L13.102 15.363L10.856 10.624L14.115 10.624L15.743 15.363Z"/>
  </g></symbol>
<symbol id="icon-copy-fill" viewBox="0 0 48 48"><g fill="currentColor" transform="translate(2, 2)">
    <path d="M39 8.045C41.835 8.502 44.000 10.960 44 13.924L44 34.117C43.999 39.575 39.575 44 34.117 44L13.909 44C10.946 43.999 8.489 41.834 8.031 39L31 39C35.418 39 39 35.418 39 31L39 8.045Z"/>
    <path d="M30.750 0C33.649 0 36.000 2.351 36 5.250L36 30.750C36 33.650 33.650 36 30.750 36L5.250 36C2.351 36 0 33.650 0 30.750L0 5.250C0.000 2.351 2.351 0 5.250 0L30.750 0Z"/>
  </g></symbol>
<symbol id="icon-copy" viewBox="0 0 48 48"><path fill-rule="evenodd" d="M28.5 0L4.5 0C3.257 0 2.197 0.439 1.318 1.318C0.439 2.197 0 3.257 0 4.5L0 28.5C0 29.743 0.439 30.803 1.318 31.682C2.197 32.561 3.257 33 4.5 33L28.5 33C29.743 33 30.803 32.561 31.682 31.682C32.561 30.803 33 29.743 33 28.5L33 4.5C33 3.257 32.561 2.197 31.682 1.318C30.803 0.439 29.743 0 28.5 0ZM3.439 3.439C3.732 3.146 4.086 3 4.5 3L28.5 3C28.914 3 29.268 3.146 29.561 3.439C29.854 3.732 30 4.086 30 4.5L30 28.5C30 28.914 29.854 29.268 29.561 29.561C29.268 29.854 28.914 30 28.5 30L4.5 30C4.086 30 3.732 29.854 3.439 29.561C3.146 29.268 3 28.914 3 28.5L3 4.5C3 4.086 3.146 3.732 3.439 3.439Z" transform="translate(1.5, 13.5)" fill="currentColor"/>
  <path fill-rule="evenodd" d="M28.5 30L27 30C26.448 30 26 29.552 26 29C26 28.448 26.448 28 27 28L28.5 28C28.914 28 29.268 27.854 29.561 27.561C29.854 27.268 30 26.914 30 26.5L30 2.5C30 2.086 29.854 1.732 29.561 1.439C29.268 1.146 28.914 1 28.5 1L4.5 1C4.086 1 3.732 1.146 3.439 1.439C3.146 1.732 3 2.086 3 2.5L3 4C3 4.552 2.552 5 2 5C1.448 5 1 4.552 1 4L1 2.5C1 1.257 1.439 0.197 2.318 -0.682C3.197 -1.561 4.257 -2 5.5 -2L29.5 -2C30.743 -2 31.803 -1.561 32.682 -0.682C33.561 0.197 34 1.257 34 2.5L34 26.5C34 27.743 33.561 28.803 32.682 29.682C31.803 30.561 30.743 31 29.5 31L28.5 31L28.5 30Z" transform="translate(13.5, 1.5)" fill="currentColor"/></symbol>
<symbol id="icon-delete" viewBox="0 0 48 48"><g fill="currentColor" transform="translate(0, 2)">
    <path d="M15 1C15 0.448 15.448 0 16 0L32 0C32.552 0 33 0.448 33 1L33 2C33 2.552 32.552 3 32 3L16 3C15.448 3 15 2.552 15 2L15 1Z"/>
    <path d="M17 20C17 19.448 17.448 19 18 19L19 19C19.552 19 20 19.448 20 20L20 30C20 30.552 19.552 31 19 31L18 31C17.448 31 17 30.552 17 30L17 20Z"/>
    <path d="M29 19C28.448 19 28 19.448 28 20L28 30C28 30.552 28.448 31 29 31L30 31C30.552 31 31 30.552 31 30L31 20C31 19.448 30.552 19 30 19L29 19Z"/>
    <path d="M0 8C0 7.448 0.448 7 1 7L47 7C47.552 7 48 7.448 48 8L48 9C48 9.552 47.552 10 47 10L43.838 10L42.409 36.432C42.18 40.676 38.671 44 34.421 44L13.579 44C9.329 44 5.820 40.676 5.591 36.432L4.162 10L1 10C0.448 10 0 9.552 0 9L0 8ZM7.167 10L8.587 36.27C8.730 38.923 10.923 41 13.579 41L34.421 41C37.077 41 39.270 38.923 39.413 36.27L40.833 10L7.167 10Z"/>
  </g></symbol>
<symbol id="icon-edit" viewBox="0 0 48 48"><g fill="currentColor" transform="translate(2, 3.828)">
    <path d="M30.547 0.586C31.328 -0.195 32.595 -0.195 33.376 0.586L39.086 6.296C39.867 7.077 39.867 8.343 39.086 9.124L12.624 35.586C12.249 35.961 11.740 36.172 11.210 36.172L5.500 36.172C4.395 36.172 3.500 35.276 3.500 34.172L3.500 28.462C3.500 27.931 3.711 27.422 4.086 27.047L30.547 0.586ZM6.519 29.298L6.519 32.153C6.519 32.705 6.967 33.153 7.519 33.153L10.374 33.153C10.639 33.153 10.893 33.047 11.081 32.860L35.524 8.417C35.914 8.027 35.914 7.393 35.524 7.003L32.669 4.148C32.278 3.757 31.645 3.757 31.254 4.148L6.812 28.591C6.624 28.778 6.519 29.033 6.519 29.298Z"/>
    <path d="M44 40.172C44 39.619 43.552 39.172 43 39.172L1 39.172C0.448 39.172 0 39.619 0 40.172L0 41.172C0 41.724 0.448 42.172 1 42.172L43 42.172C43.552 42.172 44 41.724 44 41.172L44 40.172Z"/>
  </g></symbol>
<symbol id="icon-eye" viewBox="0 0 48 48"><g fill="currentColor" transform="translate(0, 2.5)">
    <path d="M14 21.500C14 15.977 18.477 11.500 24 11.500C29.523 11.500 34 15.977 34 21.500C34 27.023 29.523 31.500 24 31.500C18.477 31.500 14 27.023 14 21.500ZM24 14.500C20.134 14.500 17 17.634 17 21.500C17 25.366 20.134 28.500 24 28.500C27.866 28.500 31 25.366 31 21.500C31 17.634 27.866 14.500 24 14.500Z"/>
    <path d="M38.109 8.811C42.605 11.840 46.104 16.276 48 21.500C44.398 31.424 35.012 38.500 24 38.500C12.988 38.500 3.602 31.424 0 21.500C1.896 16.276 5.395 11.840 9.891 8.811L7.701 5.018C7.425 4.540 7.589 3.928 8.067 3.652L8.933 3.152C9.411 2.876 10.023 3.040 10.299 3.518L12.474 7.284C15.517 5.720 18.909 4.755 22.500 4.544L22.500 1C22.500 0.448 22.948 0 23.500 0L24.500 0C25.052 0 25.500 0.448 25.500 1L25.500 4.544C29.091 4.755 32.483 5.720 35.526 7.284L37.701 3.518C37.977 3.040 38.589 2.876 39.067 3.152L39.933 3.652C40.411 3.928 40.575 4.540 40.299 5.018L38.109 8.811ZM3.219 21.500C6.667 29.755 14.695 35.500 24 35.500C33.305 35.500 41.333 29.755 44.781 21.500C41.333 13.245 33.305 7.500 24 7.500C14.695 7.500 6.667 13.245 3.219 21.500Z"/>
  </g></symbol>
<symbol id="icon-file" viewBox="0 0 48 48"><g fill="currentColor" transform="translate(4, 0)">
    <path d="M9 21C9 20.448 9.448 20 10 20L30 20C30.552 20 31 20.448 31 21L31 22C31 22.552 30.552 23 30 23L10 23C9.448 23 9 22.552 9 22L9 21Z"/>
    <path d="M10 29C9.448 29 9 29.448 9 30L9 31C9 31.552 9.448 32 10 32L24 32C24.552 32 25 31.552 25 31L25 30C25 29.448 24.552 29 24 29L10 29Z"/>
    <path fill-rule="evenodd" d="M8 4C8 1.791 9.791 0 12 0L28 0C30.209 0 32 1.791 32 4C36.418 4 40 7.582 40 12L40 40C40 44.418 36.418 48 32 48L8 48C3.582 48 0 44.418 0 40L0 12C0 7.582 3.582 4 8 4ZM12 3L28 3C28.552 3 29 3.448 29 4L29 7C29 7.552 28.552 8 28 8L12 8C11.448 8 11 7.552 11 7L11 4C11 3.448 11.448 3 12 3ZM8 7C5.239 7 3 9.239 3 12L3 40C3 42.761 5.239 45 8 45L32 45C34.761 45 37 42.761 37 40L37 12C37 9.239 34.761 7 32 7C32 9.209 30.209 11 28 11L12 11C9.791 11 8 9.209 8 7Z"/>
  </g></symbol>
<symbol id="icon-folder" viewBox="0 0 48 48"><g fill="currentColor" transform="translate(0, 2)">
    <path fill-rule="evenodd" d="M22.040 12.932C22.874 11.453 24.964 11.406 25.876 12.793L25.961 12.932L28.617 17.645L33.921 18.716C35.639 19.063 36.319 21.154 35.133 22.444L31.471 26.427L32.092 31.803C32.293 33.543 30.514 34.835 28.921 34.106L24 31.854L19.081 34.106C17.487 34.836 15.708 33.544 15.909 31.803L16.529 26.427L12.868 22.444C11.682 21.154 12.362 19.062 14.080 18.716L19.383 17.645L22.040 12.932ZM21.280 19.371L21 19.870L20.438 19.982L15.009 21.078L19.146 25.577L19.079 26.146L18.443 31.647L24.001 29.105L24.521 29.344L29.557 31.647L28.856 25.577L32.991 21.078L27.563 19.982L27.001 19.870L26.721 19.371L24 14.545L21.280 19.371Z"/>
    <path fill-rule="evenodd" d="M21.515 0C23.106 0 24.633 0.633 25.758 1.758L29.707 5.707C29.895 5.895 30.149 6 30.414 6L40 6C44.418 6 48 9.582 48 14L48 36C48 40.418 44.418 44 40 44L8 44C3.582 44 0 40.418 0 36L0 8C0 3.582 3.582 0 8 0L21.515 0ZM8 3C5.239 3 3 5.239 3 8L3 36C3 38.761 5.239 41 8 41L40 41C42.761 41 45 38.761 45 36L45 14C45 11.239 42.761 9 40 9L30.414 9C29.353 9 28.336 8.578 27.586 7.828L23.636 3.879C23.073 3.316 22.310 3 21.515 3L8 3Z"/>
  </g></symbol>
<symbol id="icon-follow-added-fill" viewBox="0 0 48 48"><path d="M24.468 42.749C26.717 41.539 29.018 40.219 31.257 38.775L26.585 34.099C24.468 31.978 24.468 30.564 26.589 28.440L27.295 27.734C29.355 25.655 31.199 25.991 32.948 27.733L34.438 29.225L35.927 30.716L43.050 23.587C44.523 22.040 45.273 22.259 46.568 22.468C47.484 20.152 48 17.667 48 15C48 6.716 41.732 0 34 0C30.463 0 27.232 1.406 24.767 3.724C24.340 4.126 23.660 4.126 23.233 3.724C20.768 1.406 17.537 0 14 0C6.268 0 0 6.716 0 15C0 28.071 12.395 36.757 23.532 42.749C23.825 42.907 24.175 42.907 24.468 42.749ZM47.294 27.828C47.684 27.437 47.684 26.804 47.294 26.413L46.586 25.707C46.195 25.316 45.562 25.316 45.172 25.707L35.927 34.960L30.829 29.857C30.438 29.467 29.805 29.466 29.415 29.857L28.707 30.564C28.316 30.954 28.316 31.587 28.707 31.978L35.219 38.495C35.609 38.886 36.243 38.886 36.633 38.495L47.294 27.828Z" transform="translate(0, 3)" fill="currentColor"/></symbol>
<symbol id="icon-forward" viewBox="0 0 48 48"><path fill-rule="evenodd" d="M19.510 3.715C19.716 0.736 23.065 -1.009 25.645 0.630L44.184 12.403C46.658 13.975 46.658 17.586 44.184 19.157L25.645 30.931C23.065 32.569 19.716 30.825 19.510 27.846L19.500 27.554L19.500 22.448L6.145 30.931C3.565 32.569 0.216 30.825 0.010 27.846L0 27.554L0 4.007L0.010 3.715C0.216 0.736 3.565 -1.009 6.145 0.630L19.500 9.110L19.500 4.007L19.510 3.715ZM4.536 3.162C3.870 2.739 3 3.218 3 4.007L3 27.554C3 28.342 3.870 28.821 4.536 28.398L19.500 18.894L19.500 12.665L4.536 3.162ZM22.500 27.554C22.500 28.342 23.370 28.821 24.036 28.398L42.575 16.624C43.193 16.231 43.193 15.329 42.575 14.937L24.036 3.162C23.370 2.739 22.500 3.218 22.500 4.007L22.500 27.554Z" transform="translate(1, 8.220)" fill="currentColor"/></symbol>
<symbol id="icon-gift-fill" viewBox="0 0 48 48"><g fill="currentColor">
    <path d="M19.238 0.399C17.350 -0.743 15 0.700 15 3.002C15 4.658 16.268 6 17.833 6L30.167 6C31.732 6 33 4.658 33 3.002C33 0.700 30.650 -0.743 28.762 0.399L26.241 1.924C24.852 2.763 23.148 2.763 21.759 1.924L19.238 0.399Z"/>
    <path d="M4.500 9C2.015 9 0 11.015 0 13.500C0 15.985 2.015 18 4.500 18L22.500 18L22.500 9L4.500 9Z"/>
    <path d="M43.500 18L25.500 18L25.500 9L43.500 9C45.985 9 48 11.015 48 13.500C48 15.985 45.985 18 43.500 18Z"/>
    <path d="M25.500 48L25.500 21L45 21L45 42C45 45.314 42.314 48 39 48L25.500 48Z"/>
    <path d="M9 48L22.500 48L22.500 21L3 21L3 42C3 45.314 5.686 48 9 48Z"/>
  </g></symbol>
<symbol id="icon-grass-active" viewBox="0 0 50 50"><path
    d="M25.797 1.666C24.822 0.288 23.323 -0.19 21.422 0.066C21.087 0.111 20.742 0.2 20.391 0.316C20.082 0.421 19.783 0.55 19.493 0.699C13.124 4 12.307 10.346 12.307 10.346C10.791 8.857 8.306 7.911 6.535 7.593C4.772 7.278 1.084 7.222 0.117 10.073C-1.023 15.195 6.471 18.585 8.522 19.412C9.104 19.645 6.617 18.751 9.962 19.951C14.011 21.3661 12.7852 25.2689 12.2703 26.5842C12.1902 26.7887 12.3316 27.002 12.5512 27.002H13.8518C14.0088 27.002 14.1422 26.8871 14.1647 26.7317C14.3898 25.173 14.5294 23.7784 14.745 22.897C15.163 21.195 15.814 19.904 17.784 18.606C27.531 12.601 27.365 3.879 25.797 1.666Z"
    transform="translate(11.75 11.4)"
    fill="currentColor"
  />
  <path
    d="M0 4.112C0.616 2.918 1.788 1.309 3.267 0.275C4.745 -0.76 10.944 1.382 10.202 2.502C10.202 2.502 8.964 3.485 9.237 3.582C6.078 5.173 2.714 8.771 1.924 9.566C1.444 7.59 0.753 5.691 0 4.112Z"
    transform="translate(22.748 17.948)"
    fill="currentColor"
    fill-opacity="0.35"
  /></symbol>
<symbol id="icon-grass-default" viewBox="0 0 50 50"><path
    d="M25.797 1.666C24.822 0.288 23.323 -0.19 21.422 0.066C21.087 0.111 20.742 0.2 20.391 0.316C20.082 0.421 19.783 0.55 19.493 0.699C13.124 4 12.307 10.346 12.307 10.346C10.791 8.857 8.306 7.911 6.535 7.593C4.772 7.278 1.084 7.222 0.117 10.073C-1.023 15.195 6.471 18.585 8.522 19.412C9.104 19.645 6.617 18.751 9.962 19.951C14.011 21.3661 12.7852 25.2689 12.2703 26.5842C12.1902 26.7887 12.3316 27.002 12.5512 27.002H13.8518C14.0088 27.002 14.1422 26.8871 14.1647 26.7317C14.3898 25.173 14.5294 23.7784 14.745 22.897C15.163 21.195 15.814 19.904 17.784 18.606C27.531 12.601 27.365 3.879 25.797 1.666Z"
    transform="translate(11.75 11.4)"
    fill="currentColor"
  />
  <path
    d="M0 4.112C0.616 2.918 1.788 1.309 3.267 0.275C4.745 -0.76 10.944 1.382 10.202 2.502C10.202 2.502 8.964 3.485 9.237 3.582C6.078 5.173 2.714 8.771 1.924 9.566C1.444 7.59 0.753 5.691 0 4.112Z"
    transform="translate(22.748 17.948)"
    fill="currentColor"
    fill-opacity="0.35"
  /></symbol>
<symbol id="icon-grid" viewBox="0 0 48 48"><g fill="currentColor" transform="translate(2, 2)">
    <path fill-rule="evenodd" d="M16 24C18.209 24 20 25.791 20 28L20 40C20 42.140 18.319 43.888 16.206 43.995L16 44L4 44L3.794 43.995C1.749 43.891 0.109 42.251 0.005 40.206L0 40L0 28C0 25.791 1.791 24 4 24L16 24ZM4 27C3.448 27 3 27.448 3 28L3 40C3 40.552 3.448 41 4 41L16 41C16.552 41 17 40.552 17 40L17 28C17 27.448 16.552 27 16 27L4 27Z"/>
    <path fill-rule="evenodd" d="M26.075 26.075C30.176 21.975 36.824 21.975 40.925 26.075C45.025 30.176 45.025 36.824 40.925 40.925C36.952 44.897 30.589 45.021 26.467 41.297L26.075 40.925C21.975 36.824 21.975 30.176 26.075 26.075ZM27.241 29.362C25.312 32.274 25.630 36.238 28.196 38.804C30.762 41.369 34.725 41.687 37.637 39.758L27.241 29.362ZM38.804 28.196C36.238 25.630 32.274 25.312 29.362 27.241L39.758 37.637C41.687 34.725 41.369 30.762 38.804 28.196Z"/>
    <path fill-rule="evenodd" d="M16 0C18.209 0 20 1.791 20 4L20 16C20 18.140 18.319 19.888 16.206 19.995L16 20L4 20L3.794 19.995C1.749 19.891 0.109 18.251 0.005 16.206L0 16L0 4C0 1.791 1.791 0 4 0L16 0ZM4 3C3.448 3 3 3.448 3 4L3 16C3 16.552 3.448 17 4 17L16 17C16.552 17 17 16.552 17 16L17 4C17 3.448 16.552 3 16 3L4 3Z"/>
    <path fill-rule="evenodd" d="M40 0C42.209 0 44 1.791 44 4L44 16C44 18.140 42.319 19.888 40.206 19.995L40 20L28 20L27.794 19.995C25.749 19.891 24.109 18.251 24.005 16.206L24 16L24 4C24 1.791 25.791 0 28 0L40 0ZM28 3C27.448 3 27 3.448 27 4L27 16C27 16.552 27.448 17 28 17L40 17C40.552 17 41 16.552 41 16L41 4C41 3.448 40.552 3 40 3L28 3Z"/>
  </g></symbol>
<symbol id="icon-happy" viewBox="0 0 48 48"><path fill-rule="evenodd" d="M34.037 1.926C31.001 0.642 27.822 0 24.500 0C21.178 0 17.999 0.642 14.963 1.926C12.032 3.166 9.436 4.916 7.176 7.176C4.916 9.436 3.166 12.032 1.926 14.963C0.642 17.999 0 21.178 0 24.500C0 27.822 0.642 31.001 1.926 34.037C3.166 36.968 4.916 39.564 7.176 41.824C9.436 44.084 12.032 45.834 14.963 47.074C17.999 48.358 21.178 49 24.500 49C27.822 49 31.001 48.358 34.037 47.074C36.968 45.834 39.564 44.084 41.824 41.824C44.084 39.564 45.834 36.968 47.074 34.037C48.358 31.001 49 27.822 49 24.500C49 21.178 48.358 17.999 47.074 14.963C45.834 12.032 44.084 9.436 41.824 7.176C39.564 4.916 36.968 3.166 34.037 1.926ZM16.132 4.689C18.794 3.563 21.583 3 24.500 3C27.417 3 30.206 3.563 32.868 4.689C35.440 5.777 37.719 7.313 39.703 9.297C41.687 11.281 43.223 13.560 44.311 16.132C45.437 18.794 46 21.583 46 24.500C46 27.417 45.437 30.206 44.311 32.868C43.223 35.440 41.687 37.719 39.703 39.703C37.719 41.687 35.440 43.223 32.868 44.311C30.206 45.437 27.417 46 24.500 46C21.583 46 18.794 45.437 16.132 44.311C13.560 43.223 11.281 41.687 9.297 39.703C7.313 37.719 5.777 35.440 4.689 32.868C3.563 30.206 3 27.417 3 24.500C3 21.583 3.563 18.794 4.689 16.132C5.777 13.560 7.313 11.281 9.297 9.297C11.281 7.313 13.560 5.777 16.132 4.689Z" fill="currentColor"/>
  <circle cx="17.600" cy="18.886" r="3.450" fill="currentColor"/>
  <circle cx="31.400" cy="18.886" r="3.450" fill="currentColor"/>
  <path fill-rule="evenodd" d="M8.625 8.625C13.388 8.625 17.250 4.763 17.250 0L0 0C0 4.763 3.862 8.625 8.625 8.625Z" transform="translate(15.875, 26.939)" fill="currentColor"/></symbol>
<symbol id="icon-heart-add" viewBox="0 0 48 48"><g fill="currentColor" transform="translate(0, 3)">
    <path d="M24 39.589C26.554 38.187 29.106 36.663 31.510 35L33 35L33 37.617C30.225 39.521 27.306 41.222 24.468 42.749C24.175 42.907 23.825 42.907 23.532 42.749C12.395 36.757 0 28.071 0 15C0 6.716 6.268 0 14 0C17.537 0 20.768 1.406 23.233 3.724C23.660 4.126 24.340 4.126 24.767 3.724C27.232 1.406 30.463 0 34 0C41.732 0 48 6.716 48 15C48 19.076 46.795 22.726 44.798 26L42 26L42 24.820C43.907 21.827 45 18.576 45 15C45 8.174 39.884 3 34 3C31.282 3 28.772 4.075 26.823 5.909C25.240 7.398 22.760 7.398 21.177 5.909C19.228 4.075 16.718 3 14 3C8.116 3 3 8.174 3 15C3 20.494 5.580 25.219 9.726 29.423C13.657 33.410 18.827 36.748 24 39.589Z"/>
    <path d="M38 20C38.552 20 39 20.448 39 21L39 29L47 29C47.552 29 48 29.448 48 30L48 31C48 31.552 47.552 32 47 32L39 32L39 40C39 40.552 38.552 41 38 41L37 41C36.448 41 36 40.552 36 40L36 32L28 32C27.448 32 27 31.552 27 31L27 30C27 29.448 27.448 29 28 29L36 29L36 21C36 20.448 36.448 20 37 20L38 20Z"/>
  </g></symbol>
<symbol id="icon-heart-broken" viewBox="0 0 48 48"><path fill-rule="evenodd" d="M34 0C41.732 0 48 6.716 48 15C48 28.071 35.606 36.757 24.469 42.749C24.175 42.907 23.825 42.907 23.531 42.749C12.394 36.757 0 28.071 0 15C0 6.716 6.268 0 14 0C15.774 0 17.471 0.354 19.032 1C19.500 2 22.500 6 22.500 6L25.014 3.502C27.446 1.318 30.578 0 34 0ZM34 3C31.898 3 29.921 3.644 28.231 4.784L26 10L30 15L24 28L22.500 17L15.500 11L17.500 4.500C17 3.502 15.258 3 14 3C8.116 3 3 8.174 3 15C3 20.494 5.580 25.219 9.726 29.423C13.657 33.410 18.827 36.748 24 39.589C29.173 36.748 34.343 33.410 38.274 29.423C42.420 25.219 45 20.494 45 15C45 8.174 39.884 3 34 3Z" transform="translate(0, 3)" fill="currentColor"/></symbol>
<symbol id="icon-heart-fill" viewBox="0 0 48 48"><path d="M24.468 42.749C35.605 36.757 48 28.071 48 15C48 6.716 41.732 0 34 0C30.463 0 27.232 1.406 24.767 3.724C24.340 4.126 23.660 4.126 23.233 3.724C20.768 1.406 17.537 0 14 0C6.268 0 0 6.716 0 15C0 28.071 12.395 36.757 23.532 42.749C23.825 42.907 24.175 42.907 24.468 42.749Z" transform="translate(0, 3)" fill="currentColor"/></symbol>
<symbol id="icon-heart" viewBox="0 0 48 48"><path d="M38.274 29.423C34.343 33.410 29.173 36.748 24 39.589C18.827 36.748 13.657 33.410 9.726 29.423C5.580 25.219 3 20.494 3 15C3 8.174 8.116 3 14 3C16.718 3 19.228 4.075 21.177 5.909C22.760 7.398 25.240 7.398 26.823 5.909C28.772 4.075 31.282 3 34 3C39.884 3 45 8.174 45 15C45 20.494 42.420 25.219 38.274 29.423ZM24.468 42.749C35.605 36.757 48 28.071 48 15C48 6.716 41.732 0 34 0C30.463 0 27.232 1.406 24.767 3.724C24.340 4.126 23.660 4.126 23.233 3.724C20.768 1.406 17.537 0 14 0C6.268 0 0 6.716 0 15C0 28.071 12.395 36.757 23.532 42.749C23.825 42.907 24.175 42.907 24.468 42.749Z" transform="translate(0, 3)" fill="currentColor"/></symbol>
<symbol id="icon-landscape" viewBox="0 0 48 48"><path d="M10.818 0C13.880 0 16.362 2.487 16.362 5.556L16.362 15.556L16.354 15.841C16.206 18.777 13.784 21.111 10.818 21.111L0 21.111C0.773 20.145 1.351 19.014 1.669 17.778L10.818 17.778C12.043 17.778 13.035 16.783 13.035 15.556L13.035 5.556C13.035 4.328 12.043 3.333 10.818 3.333L1.948 3.333L1.948 0L10.818 0Z" transform="translate(29.489, 22.889)" fill="currentColor" opacity="0.6"/>
  <g fill="currentColor" transform="translate(1.500, 4)">
    <path fill-rule="evenodd" d="M22.404 0.005C24.747 0.125 26.610 2.067 26.610 4.444L26.610 35.556C26.610 37.933 24.747 39.875 22.404 39.995L22.175 40L4.435 40C2.062 40 0.124 38.133 0.005 35.785L0 35.556L0 4.444C0 1.990 1.986 0 4.435 0L22.175 0L22.404 0.005ZM4.435 3.333C3.823 3.333 3.326 3.831 3.326 4.444L3.326 35.556C3.326 36.169 3.823 36.667 4.435 36.667L22.175 36.667C22.787 36.667 23.284 36.169 23.284 35.556L23.284 4.444C23.284 3.831 22.787 3.333 22.175 3.333L18.507 3.333L18.061 4.783C17.919 5.244 17.520 5.555 17.071 5.556L9.544 5.556C9.095 5.556 8.695 5.245 8.553 4.784L8.105 3.333L4.435 3.333Z"/>
    <path d="M28.828 0C34.645 0 39.361 4.726 39.361 10.556L39.361 10.977L42.521 8.600C43 8.240 43.677 8.326 44.052 8.794L44.757 9.677C45.143 10.160 45.060 10.867 44.573 11.248L36.930 17.214C36.566 17.498 36.035 17.238 36.035 16.775L36.035 10.556C36.035 6.852 33.252 3.800 29.668 3.383C29.353 2.128 28.772 0.979 27.989 0L28.828 0Z"/>
  </g></symbol>
<symbol id="icon-like-active" viewBox="0 0 50 50"><path
    d="M20.181 0C17.765 0 15.518 1.211 14.04 3.208C12.562 1.21 10.316 0 7.899 0C3.543 0 0 3.871 0 8.629C0 11.467 1.269 13.458 2.289 15.058C5.254 19.705 11.969 24.496 12.285 24.74C12.636 25.011 13.299 25.362 14.039 25.362C14.748 25.362 15.416 24.994 15.795 24.74C17.111 23.856 22.825 19.705 25.79 15.058C26.81 13.458 28.08 11.467 28.08 8.629C28.08 3.871 24.536 0 20.181 0Z"
    transform="translate(11.076 13.935)"
    fill="currentColor"
  />
  <path
    d="M14.4786 5.02859C14.7064 4.6845 14.4316 4.11715 13.8231 3.48495C13.3149 3.40967 12.6645 3.45659 11.8461 3.70304C8.33616 5.47042 3.94871 10.3307 3.07122 11.2144C2.63247 7.2378 1.31624 5.0286 0 3.3535C1.53561 1.49776 2.93809 0.533414 4.38745 0.168459C7.63604 -0.649412 12.0873 1.68161 13.8231 3.48495C16.0394 3.81328 15.5493 6.46616 14.4786 5.02859Z"
    transform="translate(25.184 13.763)"
    fill="currentColor"
    fill-opacity="0.35"
  /></symbol>
<symbol id="icon-like-default" viewBox="0 0 50 50"><path
    d="M20.181 0C17.765 0 15.518 1.211 14.04 3.208C12.562 1.21 10.316 0 7.899 0C3.543 0 0 3.871 0 8.629C0 11.467 1.269 13.458 2.289 15.058C5.254 19.705 11.969 24.496 12.285 24.74C12.636 25.011 13.299 25.362 14.039 25.362C14.748 25.362 15.416 24.994 15.795 24.74C17.111 23.856 22.825 19.705 25.79 15.058C26.81 13.458 28.08 11.467 28.08 8.629C28.08 3.871 24.536 0 20.181 0Z"
    transform="translate(11.076 13.935)"
    fill="currentColor"
  />
  <path
    d="M14.4786 5.02859C14.7064 4.6845 14.4316 4.11715 13.8231 3.48495C13.3149 3.40967 12.6645 3.45659 11.8461 3.70304C8.33616 5.47042 3.94871 10.3307 3.07122 11.2144C2.63247 7.2378 1.31624 5.0286 0 3.3535C1.53561 1.49776 2.93809 0.533414 4.38745 0.168459C7.63604 -0.649412 12.0873 1.68161 13.8231 3.48495C16.0394 3.81328 15.5493 6.46616 14.4786 5.02859Z"
    transform="translate(25.184 13.763)"
    fill="currentColor"
    fill-opacity="0.35"
  /></symbol>
<symbol id="icon-like-fill" viewBox="0 0 48 48"><path d="M41.228 2.714C39.671 0.470 37.274 -0.310 34.236 0.108C33.701 0.180 33.150 0.325 32.588 0.515C32.095 0.686 31.616 0.896 31.153 1.139C20.975 6.519 19.669 16.859 19.669 16.859C17.246 14.432 13.274 12.891 10.445 12.374C7.627 11.860 1.733 11.769 0.188 16.414C-1.635 24.761 10.342 30.285 13.620 31.632C14.550 32.012 15.040 32.187 15.921 32.511C23.660 35.371 19.551 43.399 19.339 44L22.574 44C22.973 41.284 23.201 38.830 23.565 37.312C24.234 34.538 25.274 32.434 28.422 30.319C43.533 20.180 43.734 6.321 41.228 2.714Z" transform="translate(2.786, 2)" fill="currentColor"/></symbol>
<symbol id="icon-like" viewBox="0 0 48 48"><path d="M38.654 0.118C42.086 -0.338 44.792 0.514 46.550 2.961C49.379 6.895 49.679 22.402 32.090 33.076C28.535 35.383 27.361 37.678 26.605 40.705C26.217 42.271 25.965 44.750 25.558 47.521L25.534 47.621C25.458 47.844 25.246 48.001 25.002 48.001L24.014 48.001L22.639 48.001L22.567 47.996C22.241 47.955 22.034 47.643 22.118 47.324L22.140 47.255C23.070 44.915 25.279 37.982 17.974 35.466C11.939 33.334 16.426 34.923 15.377 34.506C11.733 33.062 -1.426 27.199 0.127 18.332L0.212 17.908C1.955 12.841 8.612 12.940 11.792 13.501C14.987 14.065 19.472 15.744 22.208 18.393C22.215 18.338 23.709 7.096 35.174 1.243C35.696 0.979 36.236 0.750 36.794 0.561C37.430 0.354 38.051 0.199 38.654 0.118ZM44.113 4.711C43.186 3.421 41.738 2.734 39.049 3.091C38.680 3.140 38.250 3.242 37.744 3.406C37.331 3.546 36.929 3.716 36.537 3.914C31.477 6.497 28.642 10.252 27.055 13.377C26.259 14.944 25.783 16.345 25.509 17.337C25.372 17.832 25.287 18.222 25.237 18.474C25.212 18.600 25.197 18.691 25.188 18.744C25.186 18.760 25.183 18.772 25.181 18.781L25.182 18.782L25.181 18.784C25.181 18.788 25.181 18.791 25.180 18.794L25.180 18.795L24.667 22.727C24.561 23.543 23.571 23.888 22.980 23.316L20.121 20.548C18.104 18.596 14.603 17.150 11.817 16.561L11.270 16.455C9.921 16.217 7.901 16.100 6.152 16.513C4.518 16.899 3.546 17.615 3.102 18.741C2.581 21.445 4.190 24.111 7.492 26.715C10.328 28.952 13.732 30.569 15.722 31.407L16.482 31.717L16.484 31.718C16.554 31.746 16.650 31.784 16.740 31.825C16.748 31.828 16.812 31.859 16.901 31.905C17.388 32.077 18.060 32.314 18.974 32.637C20.986 33.333 22.858 34.494 24.176 36.165C24.424 36.478 24.938 36.440 25.125 36.087C25.328 35.705 25.553 35.325 25.806 34.949C26.910 33.303 28.415 31.884 30.457 30.559L30.495 30.534L30.533 30.510C38.735 25.533 42.570 19.567 44.111 14.601C44.889 12.094 45.089 9.825 44.965 8.033C44.834 6.156 44.371 5.071 44.113 4.713L44.113 4.711Z" transform="translate(0.001, 0)" fill="currentColor"/></symbol>
<symbol id="icon-location" viewBox="0 0 48 48"><path d="M42 21C42 37.098 21 48 21 48C21 48 0 37.098 0 21C0 9.402 9.402 0 21 0C32.598 0 42 9.402 42 21ZM19.348 43.526C19.952 43.917 20.502 44.261 21 44.558C21.498 44.261 22.048 43.917 22.652 43.526C25.142 41.915 27.422 40.176 29.490 38.310C32.331 35.746 34.549 33.132 36.145 30.468C38.048 27.292 39 24.136 39 21C39 18.557 38.529 16.222 37.587 13.994C36.676 11.841 35.390 9.934 33.728 8.272C32.066 6.610 30.159 5.324 28.006 4.413C25.778 3.471 23.443 3 21 3C18.557 3 16.222 3.471 13.995 4.413C11.841 5.324 9.934 6.610 8.272 8.272C6.610 9.934 5.324 11.841 4.413 13.994C3.471 16.222 3 18.557 3 21C3 24.136 3.952 27.292 5.855 30.468C7.451 33.132 9.669 35.746 12.510 38.310C14.578 40.176 16.858 41.915 19.348 43.526ZM21 12C25.971 12 30 16.029 30 21C30 25.971 25.971 30 21 30C16.029 30 12 25.971 12 21C12 16.029 16.029 12 21 12ZM21 15C19.343 15 17.929 15.586 16.757 16.757C15.586 17.929 15 19.343 15 21C15 22.657 15.586 24.071 16.757 25.243C17.929 26.414 19.343 27 21 27C22.657 27 24.071 26.414 25.243 25.243C26.414 24.071 27 22.657 27 21C27 19.343 26.414 17.929 25.243 16.757C24.071 15.586 22.657 15 21 15Z" transform="translate(3, 0)" fill="currentColor"/></symbol>
<symbol id="icon-maximize" viewBox="0 0 48 48"><g fill="currentColor" transform="translate(9, 9)">
    <path d="M28 0C29.105 0 30 0.895 30 2L30 15C30 15.552 29.552 16 29 16L28 16C27.448 16 27 15.552 27 15L27 3L15 3C14.448 3 14 2.552 14 2L14 1C14 0.448 14.448 0 15 0L28 0Z"/>
    <path d="M2 30C0.895 30 0 29.105 0 28L0 15C0 14.448 0.448 14 1 14L2 14C2.552 14 3 14.448 3 15L3 27L15 27C15.552 27 16 27.448 16 28L16 29C16 29.552 15.552 30 15 30L2 30Z"/>
  </g></symbol>
<symbol id="icon-message" viewBox="0 0 48 48"><g fill="currentColor">
    <path d="M14 22C12.895 22 12 22.895 12 24C12 25.105 12.895 26 14 26C15.105 26 16 25.105 16 24C16 22.895 15.105 22 14 22Z"/>
    <path d="M24 22C22.895 22 22 22.895 22 24C22 25.105 22.895 26 24 26C25.105 26 26 25.105 26 24C26 22.895 25.105 22 24 22Z"/>
    <path d="M32 24C32 22.895 32.895 22 34 22C35.105 22 36 22.895 36 24C36 25.105 35.105 26 34 26C32.895 26 32 25.105 32 24Z"/>
    <path d="M24 48C37.255 48 48 37.255 48 24C48 10.745 37.255 0 24 0C10.745 0 0 10.745 0 24C0 31.108 3.090 37.494 8 41.889L8 46C8 47.105 8.895 48 10 48L24 48ZM11 41.889C11 41.036 10.637 40.223 10.001 39.653C5.700 35.804 3 30.219 3 24C3 12.402 12.402 3 24 3C35.598 3 45 12.402 45 24C45 35.598 35.598 45 24 45L11 45L11 41.889Z"/>
  </g></symbol>
<symbol id="icon-minimize" viewBox="0 0 48 48"><g fill="currentColor" transform="translate(7, 7)">
    <path d="M20 16C18.895 16 18 15.105 18 14L18 1C18 0.448 18.448 0 19 0L20 0C20.552 0 21 0.448 21 1L21 13L33 13C33.552 13 34 13.448 34 14L34 15C34 15.552 33.552 16 33 16L20 16Z"/>
    <path d="M14 18C15.105 18 16 18.895 16 20L16 33C16 33.552 15.552 34 15 34L14 34C13.448 34 13 33.552 13 33L13 21L1 21C0.448 21 0 20.552 0 20L0 19C0 18.448 0.448 18 1 18L14 18Z"/>
  </g></symbol>
<symbol id="icon-model" viewBox="0 0 48 48"><path d="M14.840 19.785L4.947 19.785C3.635 19.783 2.379 19.262 1.451 18.335C0.524 17.408 0.002 16.151 0 14.840L0 4.947C0.002 3.635 0.523 2.378 1.451 1.451C2.378 0.523 3.635 0.002 4.947 0L14.840 0C16.151 0.002 17.408 0.524 18.335 1.451C19.262 2.379 19.783 3.635 19.785 4.947L19.785 14.840C19.783 16.151 19.261 17.407 18.334 18.334C17.407 19.261 16.151 19.783 14.840 19.785ZM4.947 3.296C4.039 3.296 3.298 4.039 3.298 4.947L3.298 14.840C3.298 15.748 4.039 16.489 4.947 16.489L14.840 16.489C15.748 16.489 16.489 15.748 16.489 14.840L16.489 4.947C16.489 4.039 15.748 3.298 14.840 3.298L4.947 3.298L4.947 3.296ZM14.840 42.731L4.947 42.731C3.635 42.730 2.379 42.208 1.451 41.281C0.524 40.354 0.002 39.097 0 37.786L0 27.893C0.002 26.582 0.523 25.325 1.451 24.397C2.378 23.470 3.635 22.948 4.947 22.946L14.840 22.946C16.151 22.949 17.408 23.471 18.335 24.398C19.262 25.325 19.783 26.582 19.785 27.893L19.785 37.786C19.783 39.097 19.261 40.354 18.334 41.281C17.407 42.207 16.151 42.729 14.840 42.731ZM4.947 26.243C4.039 26.243 3.298 26.983 3.298 27.893L3.298 37.786C3.298 38.696 4.039 39.435 4.947 39.435L14.840 39.435C15.748 39.435 16.489 38.696 16.489 37.786L16.489 27.893C16.489 26.983 15.748 26.244 14.840 26.244L4.947 26.244L4.947 26.243ZM37.786 43.200L27.893 43.200C25.166 43.200 22.946 40.896 22.946 38.063L22.946 34.638C22.946 31.809 25.166 29.503 27.893 29.503L37.786 29.503C40.512 29.503 42.731 31.807 42.731 34.639L42.731 38.065C42.731 40.896 40.512 43.200 37.786 43.200ZM27.893 32.927C26.983 32.927 26.244 33.694 26.244 34.639L26.244 38.065C26.244 39.009 26.982 39.776 27.893 39.776L37.786 39.776C38.696 39.776 39.435 39.009 39.435 38.063L39.435 34.638C39.435 33.694 38.696 32.927 37.786 32.927L27.893 32.927ZM37.786 25.874L27.893 25.874C25.166 25.874 22.946 23.697 22.946 21.022L22.946 4.852C22.946 2.177 25.166 0 27.893 0L37.786 0C40.512 0 42.731 2.177 42.731 4.852L42.731 21.022C42.731 23.697 40.512 25.874 37.786 25.874ZM27.893 3.234C27.460 3.230 27.043 3.398 26.734 3.701C26.425 4.005 26.249 4.418 26.244 4.852L26.244 21.022C26.244 21.914 26.982 22.638 27.893 22.638L37.786 22.638C38.219 22.642 38.636 22.474 38.945 22.171C39.254 21.868 39.430 21.455 39.435 21.022L39.435 4.852C39.431 4.418 39.255 4.005 38.946 3.701C38.636 3.398 38.219 3.230 37.786 3.234L27.893 3.234Z" transform="translate(2.634, 2.400)" fill="currentColor"/></symbol>
<symbol id="icon-more-vertical" viewBox="0 0 48 48"><g fill="currentColor" transform="translate(19.5, 4)">
    <path d="M4.5 31C6.985 31 9 33.015 9 35.5C9 37.985 6.985 40 4.5 40C2.015 40 0 37.985 0 35.5C0 33.015 2.015 31 4.5 31Z"/>
    <path d="M4.5 15.5C6.985 15.5 9 17.515 9 20C9 22.485 6.985 24.5 4.5 24.5C2.015 24.5 0 22.485 0 20C0 17.515 2.015 15.5 4.5 15.5Z"/>
    <path d="M4.5 0C6.985 0 9 2.015 9 4.5C9 6.985 6.985 9 4.5 9C2.015 9 0 6.985 0 4.5C0 2.015 2.015 0 4.5 0Z"/>
  </g></symbol>
<symbol id="icon-more" viewBox="0 0 48 48"><g fill="currentColor" transform="translate(4, 21)">
    <path d="M3 6C4.657 6 6 4.657 6 3C6 1.343 4.657 0 3 0C1.343 0 0 1.343 0 3C0 4.657 1.343 6 3 6Z"/>
    <path d="M23 3C23 4.657 21.657 6 20 6C18.343 6 17 4.657 17 3C17 1.343 18.343 0 20 0C21.657 0 23 1.343 23 3Z"/>
    <path d="M40 3C40 4.657 38.657 6 37 6C35.343 6 34 4.657 34 3C34 1.343 35.343 0 37 0C38.657 0 40 1.343 40 3Z"/>
  </g></symbol>
<symbol id="icon-play-fill" viewBox="0 0 48 48"><rect x="10.909" y="8.727" width="8.727" height="30.545" rx="4.364" fill="currentColor"/>
  <rect x="28.364" y="8.727" width="8.727" height="30.545" rx="4.364" fill="currentColor"/></symbol>
<symbol id="icon-refresh" viewBox="0 0 48 48"><g fill="currentColor">
    <path d="M6.933 7.126L6.582 7.482C6.194 7.874 6.197 8.507 6.590 8.896L7.301 9.599C7.694 9.987 8.327 9.984 8.715 9.591L9.067 9.235C12.875 5.384 18.158 3 24 3C35.598 3 45 12.402 45 24L45 30.917L38.196 24.217C37.803 23.829 37.170 23.834 36.782 24.228L36.080 24.940C35.693 25.334 35.698 25.967 36.091 26.354L45.447 35.569C45.878 35.993 46.522 36.117 47.079 35.884C47.637 35.650 48 35.105 48 34.5L48 24C48 10.745 37.255 0 24 0C17.324 0 11.282 2.728 6.933 7.126Z"/>
    <path d="M41.067 40.874L41.418 40.518C41.806 40.126 41.803 39.493 41.410 39.104L40.699 38.401C40.306 38.013 39.673 38.016 39.285 38.409L38.933 38.765C35.125 42.616 29.842 45 24 45C12.402 45 3 35.598 3 24L3 17.083L9.804 23.783C10.197 24.171 10.830 24.166 11.218 23.772L11.920 23.060C12.307 22.666 12.302 22.033 11.909 21.646L2.553 12.431C2.122 12.007 1.478 11.883 0.921 12.116C0.363 12.350 0 12.895 0 13.5L0 24C0 37.255 10.745 48 24 48C30.676 48 36.718 45.272 41.067 40.874Z"/>
  </g></symbol>
<symbol id="icon-sad" viewBox="0 0 48 48"><g fill="currentColor">
    <path d="M24 29.500C26.862 29.500 29.165 30.670 30.710 31.782C31.487 32.342 32.093 32.901 32.508 33.324C32.716 33.536 32.878 33.716 32.991 33.847C33.048 33.912 33.093 33.966 33.125 34.005C33.141 34.025 33.154 34.041 33.164 34.054C33.169 34.060 33.172 34.065 33.176 34.069C33.177 34.071 33.179 34.074 33.181 34.075L33.184 34.078L30.816 35.921C30.814 35.918 30.809 35.913 30.803 35.905C30.787 35.886 30.760 35.853 30.723 35.810C30.647 35.722 30.527 35.589 30.367 35.426C30.046 35.099 29.568 34.658 28.957 34.218C27.724 33.330 26.026 32.500 24 32.500C21.974 32.500 20.276 33.330 19.043 34.218C18.432 34.658 17.954 35.099 17.633 35.426C17.473 35.589 17.353 35.722 17.277 35.810C17.240 35.853 17.213 35.886 17.197 35.905C17.191 35.913 17.185 35.918 17.183 35.921L14.816 34.078L14.819 34.075C14.821 34.074 14.823 34.071 14.824 34.069C14.828 34.065 14.831 34.060 14.836 34.054C14.846 34.041 14.859 34.025 14.875 34.005C14.907 33.966 14.952 33.912 15.009 33.847C15.122 33.716 15.284 33.536 15.492 33.324C15.907 32.901 16.513 32.342 17.290 31.782C18.835 30.670 21.138 29.500 24 29.500Z"/>
    <path d="M19.038 19.079C20.237 20.079 20.237 21.921 19.038 22.921L13.960 27.152L12.040 24.848L16.658 21L12.040 17.152L13.960 14.848L19.038 19.079Z"/>
    <path d="M35.960 17.152L31.342 21L35.960 24.848L34.040 27.152L28.962 22.921C27.763 21.921 27.763 20.079 28.962 19.079L34.040 14.848L35.960 17.152Z"/>
    <path fill-rule="evenodd" d="M24 0C37.255 0 48 10.745 48 24C48 37.255 37.255 48 24 48C10.745 48 0 37.255 0 24C0 10.745 10.745 0 24 0ZM24 3C12.402 3 3 12.402 3 24C3 35.598 12.402 45 24 45C35.598 45 45 35.598 45 24C45 12.402 35.598 3 24 3Z"/>
  </g></symbol>
<symbol id="icon-search" viewBox="0 0 48 48"><g fill="currentColor" transform="translate(2, 2)">
    <path d="M40 20C40 31.046 31.046 40 20 40C8.954 40 0 31.046 0 20C0 8.954 8.954 0 20 0C31.046 0 40 8.954 40 20ZM37 20C37 10.611 29.389 3 20 3C10.611 3 3 10.611 3 20C3 29.389 10.611 37 20 37C29.389 37 37 29.389 37 20Z"/>
    <path d="M43.854 43.146C44.244 42.756 44.244 42.123 43.854 41.732L38.268 36.146C37.877 35.756 37.244 35.756 36.854 36.146L36.146 36.854C35.756 37.244 35.756 37.877 36.146 38.268L41.732 43.854C42.123 44.244 42.756 44.244 43.146 43.854L43.854 43.146Z"/>
  </g></symbol>
<symbol id="icon-share-default" viewBox="0 0 50 50"><path
    fill-rule="evenodd"
    clip-rule="evenodd"
    d="M15.2316 21.9499L27.3342 11.9191C27.9168 11.4362 27.9125 10.5411 27.3252 10.0639L15.2239 0.230468C14.5515 -0.315966 13.546 0.162573 13.546 1.02905V5.53461C7.05597 6.10544 -0.157045 10.8467 0.00300026 19.783C0.00300026 20.2651 0.583961 20.5085 0.934409 20.1774C3.1704 18.0649 5.62609 16.288 10.372 16.288H13.546V21.1577C13.546 22.0288 14.5609 22.5058 15.2316 21.9499Z"
    transform="translate(11.464 13.91)"
    fill="currentColor"
  />
  <path
    d="M0 0.076C5.571 -0.353 10.286 0.933 13.543 6.797V8.094C11.018 5.611 8.584 3.302 3.174 3.302C2.166 3.302 1.224 3.302 0 3.302V0.076Z"
    transform="translate(25.009 26.896)"
    fill="currentColor"
    fill-opacity="0.35"
  /></symbol>
<symbol id="icon-share" viewBox="0 0 48 48"><path d="M26.701 0.287C26.069 -0.331 25 0.115 25 0.997L25 10.818C25 11.326 24.613 11.751 24.106 11.821C10.564 13.695 0.121 25.203 0.001 39.160C0.001 39.191 0.001 39.222 0 39.253C0 39.303 0 39.353 0 39.403L0 40.980C0 41.866 1.077 42.310 1.707 41.683L6.142 37.272C9.893 33.542 14.980 31.446 20.284 31.446L24 31.446C24.552 31.446 25 31.891 25 32.441L25 43.003C25 43.885 26.069 44.331 26.701 43.713L47.674 22.209C48.073 21.820 48.073 21.180 47.674 20.791L26.701 0.287ZM28 37.259L28 32.441C28 30.243 26.209 28.462 24 28.462L20.284 28.462C14.184 28.462 8.334 30.872 4.021 35.162L3.241 35.938C4.777 24.977 13.499 16.301 24.520 14.776C26.445 14.510 28 12.879 28 10.818L28 5.741L44.120 21.500L28 37.259Z" transform="translate(0, 2)" fill="currentColor"/></symbol>
<symbol id="icon-smile" viewBox="0 0 48 48"><path d="M6.290 1.500C6.290 0.992 6.033 0.519 5.607 0.242C5.181 -0.034 4.644 -0.077 4.180 0.129L0.594 1.723C0.089 1.947 -0.138 2.538 0.086 3.043L0.493 3.957C0.717 4.462 1.308 4.689 1.813 4.465L3.415 3.752C3.876 7.865 5.584 11.600 8.151 14.571L5.211 18.391C4.874 18.828 4.956 19.456 5.393 19.793L6.186 20.403C6.623 20.740 7.251 20.658 7.588 20.221L10.295 16.704C13.435 19.390 17.416 21.120 21.789 21.445L21.789 25C21.789 25.552 22.237 26 22.789 26L23.789 26C24.342 26 24.789 25.552 24.789 25L24.789 21.445C29.162 21.120 33.144 19.390 36.284 16.704L38.991 20.221C39.328 20.658 39.956 20.740 40.393 20.403L41.186 19.793C41.623 19.456 41.705 18.828 41.368 18.391L38.428 14.571C40.995 11.600 42.703 7.865 43.164 3.752L44.766 4.465C45.271 4.689 45.862 4.462 46.086 3.957L46.493 3.043C46.717 2.538 46.490 1.947 45.985 1.723L42.399 0.129C41.935 -0.077 41.398 -0.034 40.972 0.242C40.546 0.519 40.290 0.992 40.290 1.500C40.290 10.889 32.678 18.500 23.290 18.500C13.901 18.500 6.290 10.889 6.290 1.500Z" transform="translate(0.710, 14)" fill="currentColor"/></symbol>
<symbol id="icon-star-fill" viewBox="0 0 48 48"><path d="M20.863 1.979C22.110 -0.660 25.890 -0.660 27.137 1.979L31.781 11.802C32.272 12.840 33.252 13.568 34.394 13.741L45.055 15.358C47.843 15.781 48.981 19.157 47.011 21.162L39.082 29.231C38.314 30.013 37.965 31.110 38.142 32.188L39.984 43.398C40.449 46.232 37.419 48.352 34.887 46.963L25.676 41.907C24.633 41.335 23.367 41.335 22.324 41.907L13.113 46.963C10.581 48.352 7.551 46.232 8.016 43.398L9.858 32.188C10.035 31.110 9.686 30.013 8.918 29.231L0.989 21.162C-0.981 19.157 0.157 15.781 2.945 15.358L13.606 13.741C14.748 13.568 15.728 12.840 16.219 11.802L20.863 1.979Z" fill="currentColor"/></symbol>
<symbol id="icon-star" viewBox="0 0 48 48"><path d="M24 0C24.534 0 25.028 0.284 25.296 0.745L32.612 13.306L46.818 16.382C47.339 16.495 47.762 16.877 47.927 17.385C48.092 17.892 47.974 18.449 47.619 18.848L37.934 29.687L39.398 44.149C39.452 44.680 39.219 45.200 38.787 45.514C38.356 45.827 37.789 45.888 37.301 45.673L24 39.811L10.699 45.673C10.211 45.888 9.645 45.827 9.213 45.514C8.781 45.200 8.548 44.680 8.602 44.149L10.066 29.687L0.381 18.848C0.026 18.449 -0.092 17.892 0.073 17.385C0.238 16.877 0.661 16.495 1.183 16.382L15.388 13.306L22.704 0.745C22.973 0.284 23.466 0 24 0ZM24 4.480L17.648 15.387C17.436 15.751 17.081 16.009 16.669 16.098L4.334 18.769L12.744 28.181C13.024 28.495 13.160 28.912 13.117 29.331L11.846 41.889L23.395 36.799C23.781 36.629 24.220 36.629 24.605 36.799L36.154 41.889L34.883 29.331C34.840 28.912 34.976 28.495 35.256 28.181L43.666 18.769L31.331 16.098C30.919 16.009 30.564 15.751 30.352 15.387L24 4.480Z" transform="translate(0, 0.100)" fill="currentColor"/></symbol>
<symbol id="icon-user" viewBox="0 0 48 48"><g fill="currentColor" transform="translate(1.991, 0)">
    <path d="M17.244 20.750C17.722 20.473 18.327 20.647 18.702 21.052C19.525 21.944 20.703 22.500 22.009 22.500C23.315 22.500 24.492 21.944 25.316 21.052C25.690 20.647 26.295 20.473 26.773 20.750L27.639 21.250C28.117 21.527 28.285 22.144 27.948 22.581C26.578 24.354 24.428 25.500 22.009 25.500C19.590 25.500 17.440 24.354 16.070 22.581C15.732 22.144 15.901 21.527 16.379 21.250L17.244 20.750Z"/>
    <path d="M29.588 32.221C35.173 29.435 39.009 23.666 39.009 17C39.009 7.611 31.398 0 22.009 0C12.620 0 5.009 7.611 5.009 17C5.009 23.665 8.845 29.435 14.430 32.221C7.988 34.363 2.759 39.161 0.042 45.317C-0.101 45.641 0.140 46 0.495 46L2.397 46C2.783 46 3.133 45.777 3.309 45.433C6.789 38.645 13.856 34 22.008 34C30.161 34 37.228 38.645 40.708 45.433C40.884 45.777 41.233 46 41.620 46L43.522 46C43.877 46 44.118 45.641 43.975 45.317C41.258 39.162 36.029 34.364 29.588 32.221ZM22.009 31C14.277 31 8.009 24.732 8.009 17C8.009 9.268 14.277 3 22.009 3C29.741 3 36.009 9.268 36.009 17C36.009 24.732 29.741 31 22.009 31Z"/>
  </g></symbol>
<symbol id="icon-volume-fill" viewBox="0 0 48 48"><g fill="currentColor" transform="translate(1, 4.315)">
    <path d="M13.096 6.808L20.501 0.884C23.120 -1.211 27 0.653 27 4.008L27 35.362C27 38.717 23.120 40.581 20.501 38.486L13.096 32.562C12.386 31.994 11.505 31.685 10.597 31.685L8 31.685C3.582 31.685 0 28.103 0 23.685L0 15.685C0 11.267 3.582 7.685 8 7.685L10.597 7.685C11.505 7.685 12.386 7.376 13.096 6.808Z"/>
    <path d="M37.896 34.180C37.506 33.789 37.508 33.158 37.878 32.748C44.575 25.339 44.575 14.029 37.878 6.620C37.508 6.211 37.506 5.579 37.896 5.189L38.604 4.481C38.994 4.091 39.630 4.090 40.003 4.497C47.867 13.081 47.867 26.287 40.003 34.871C39.630 35.278 38.994 35.278 38.604 34.887L37.896 34.180Z"/>
    <path d="M32.116 12.136C31.706 12.507 31.680 13.137 32.005 13.583C34.587 17.124 34.587 22.246 32.005 25.787C31.680 26.234 31.706 26.863 32.116 27.234L33.112 28.136C33.521 28.507 34.157 28.477 34.495 28.040C38.216 23.222 38.216 16.148 34.495 11.330C34.157 10.893 33.521 10.863 33.112 11.234L32.116 12.136Z"/>
  </g></symbol>
<symbol id="icon-volume-mute-fill" viewBox="0 0 48 48"><g fill="currentColor" transform="translate(1, 4.315)">
    <path d="M12.837 6.999L7.768 1.930C7.377 1.539 6.744 1.539 6.354 1.930L5.646 2.637C5.256 3.028 5.256 3.661 5.646 4.051L9.280 7.685L9.273 7.685L12.108 10.520C12.110 10.520 12.112 10.519 12.114 10.519L24 22.405L24 22.412L27 25.412L27 25.405L37.543 35.948C37.933 36.338 38.567 36.338 38.957 35.948L39.311 35.594C47.860 27.044 48.091 13.326 40.003 4.497C39.630 4.090 38.994 4.091 38.604 4.481L37.896 5.189C37.506 5.579 37.508 6.211 37.879 6.620C44.463 13.905 44.573 24.961 38.210 32.372L34.221 28.383C38.214 23.563 38.305 16.263 34.495 11.330C34.157 10.893 33.521 10.863 33.112 11.234L32.116 12.136C31.706 12.507 31.680 13.137 32.005 13.583C34.641 17.197 34.586 22.458 31.842 26.004L27 21.162L27 4.008C27 0.653 23.120 -1.211 20.501 0.884L13.096 6.808C13.012 6.876 12.925 6.939 12.837 6.999Z"/>
    <path d="M27 29.655L24 26.655L8 10.685L8.030 10.685L5.446 8.101C2.280 9.167 0 12.160 0 15.685L0 23.685C0 28.103 3.582 31.685 8 31.685L10.597 31.685C11.505 31.685 12.386 31.994 13.096 32.562L20.501 38.486C23.120 40.581 27 38.717 27 35.362L27 29.655Z"/>
  </g></symbol>
<symbol id="icon-volume-mute" viewBox="0 0 48 48"><g fill="currentColor" transform="translate(1, 4.315)">
    <path d="M12.837 6.999L7.768 1.930C7.377 1.539 6.744 1.539 6.354 1.930L5.646 2.637C5.256 3.028 5.256 3.661 5.646 4.051L9.280 7.685L9.273 7.685L12.108 10.520C12.110 10.520 12.112 10.519 12.114 10.519L24 22.405L24 22.412L27 25.412L27 25.405L37.543 35.948C37.933 36.338 38.567 36.338 38.957 35.948L39.311 35.594C47.860 27.044 48.091 13.326 40.003 4.497C39.630 4.090 38.994 4.091 38.604 4.481L37.896 5.189C37.506 5.579 37.508 6.211 37.879 6.620C44.463 13.905 44.573 24.961 38.210 32.372L34.221 28.383C38.214 23.563 38.305 16.263 34.495 11.330C34.157 10.893 33.521 10.863 33.112 11.234L32.116 12.136C31.706 12.507 31.680 13.137 32.005 13.583C34.641 17.197 34.586 22.458 31.842 26.004L27 21.162L27 4.008C27 0.653 23.120 -1.211 20.501 0.884L13.096 6.808C13.012 6.876 12.925 6.939 12.837 6.999ZM14.980 9.143L22.375 3.227C23.030 2.703 24 3.169 24 4.008L24 18.162L14.980 9.143Z"/>
    <path d="M27 29.655L24 26.655L24 35.363C24 36.201 23.030 36.667 22.375 36.143L14.970 30.219C13.729 29.226 12.186 28.685 10.597 28.685L8 28.685C5.239 28.685 3 26.446 3 23.685L3 15.685C3 12.924 5.239 10.685 8 10.685L8.030 10.685L5.446 8.101C2.280 9.167 0 12.160 0 15.685L0 23.685C0 28.103 3.582 31.685 8 31.685L10.597 31.685C11.505 31.685 12.386 31.994 13.096 32.562L20.501 38.486C23.120 40.581 27 38.717 27 35.363L27 29.655Z"/>
  </g></symbol>
<symbol id="icon-volume" viewBox="0 0 48 48"><g fill="currentColor" transform="translate(1, 4.315)">
    <path d="M13.096 6.808L20.501 0.884C23.120 -1.211 27 0.653 27 4.008L27 35.363C27 38.717 23.120 40.581 20.501 38.486L13.096 32.562C12.386 31.994 11.505 31.685 10.597 31.685L8 31.685C3.582 31.685 0 28.103 0 23.685L0 15.685C0 11.267 3.582 7.685 8 7.685L10.597 7.685C11.505 7.685 12.386 7.376 13.096 6.808ZM22.375 3.227L14.970 9.151C13.729 10.144 12.186 10.685 10.597 10.685L8 10.685C5.239 10.685 3 12.924 3 15.685L3 23.685C3 26.446 5.239 28.685 8 28.685L10.597 28.685C12.186 28.685 13.729 29.226 14.970 30.219L22.375 36.143C23.030 36.667 24 36.201 24 35.363L24 4.008C24 3.169 23.030 2.703 22.375 3.227Z"/>
    <path d="M37.896 34.180C37.506 33.789 37.508 33.158 37.878 32.748C44.575 25.339 44.575 14.029 37.878 6.620C37.508 6.211 37.506 5.579 37.896 5.189L38.604 4.481C38.994 4.091 39.630 4.090 40.003 4.497C47.867 13.081 47.867 26.287 40.003 34.871C39.630 35.278 38.994 35.278 38.604 34.887L37.896 34.180Z"/>
    <path d="M32.116 12.136C31.706 12.507 31.680 13.137 32.005 13.583C34.587 17.124 34.587 22.246 32.005 25.787C31.680 26.234 31.706 26.863 32.116 27.234L33.112 28.136C33.521 28.507 34.157 28.477 34.495 28.040C38.216 23.222 38.216 16.148 34.495 11.330C34.157 10.893 33.521 10.863 33.112 11.234L32.116 12.136Z"/>
  </g></symbol>
<symbol id="icon-warning" viewBox="0 0 48 48"><g fill="currentColor" transform="translate(0.667, 3.770)">
    <path d="M21.833 13.460C21.833 12.908 22.281 12.460 22.833 12.460L23.833 12.460C24.386 12.460 24.833 12.908 24.833 13.460L24.833 23.460C24.833 24.013 24.386 24.460 23.833 24.460L22.833 24.460C22.281 24.460 21.833 24.013 21.833 23.460L21.833 13.460Z"/>
    <path d="M24.333 28.460C24.886 28.460 25.333 28.908 25.333 29.460L25.333 31.460C25.333 32.013 24.886 32.460 24.333 32.460L22.333 32.460C21.781 32.460 21.333 32.013 21.333 31.460L21.333 29.460C21.333 28.908 21.781 28.460 22.333 28.460L24.333 28.460Z"/>
    <path fill-rule="evenodd" d="M18.208 2.880C20.546 -0.960 26.121 -0.960 28.458 2.880L45.782 31.341C48.216 35.339 45.338 40.460 40.657 40.460L6.009 40.460C1.329 40.460 -1.550 35.339 0.884 31.341L18.208 2.880ZM25.896 4.440L43.219 32.901C44.436 34.900 42.997 37.460 40.657 37.460L6.009 37.460C3.669 37.460 2.230 34.900 3.447 32.901L20.770 4.440C21.939 2.520 24.727 2.520 25.896 4.440Z"/>
  </g></symbol>
</svg>
