<svg xmlns="http://www.w3.org/2000/svg" fill="none" width="19" height="19.5" viewBox="0 0 19 19.5">
  <defs>
    <filter id="live_shadow" x="0" y=".5" width="19" height="19" color-interpolation-filters="sRGB" filterUnits="userSpaceOnUse">
      <feDropShadow dx="0" dy="2" stdDeviation="1" flood-color="#000" flood-opacity=".1"/>
    </filter>
  </defs>
  <g filter="url(#live_shadow)" transform="translate(2 .5)" fill="#fff">
    <path d="M7.483 1.912a5.592 5.592 0 1 0 0 11.183 5.592 5.592 0 0 0 0-11.183Zm0 .958a4.633 4.633 0 1 1 0 9.267 4.633 4.633 0 0 1 0-9.267Zm0 1.758a2.876 2.876 0 1 0 0 5.751 2.876 2.876 0 0 0 0-5.751Zm0 1.278a1.599 1.599 0 1 1 0 3.195 1.599 1.599 0 0 1 0-3.195Z"/>
    <path d="M7.158.002A.48.48 0 1 1 7.197.96l-.03.001a.48.48 0 0 1-.04-.958h.031ZM8.843.119a.48.48 0 0 1-.177.942L8.634 1.055A.48.48 0 0 1 8.843.119ZM5.443.277A.48.48 0 0 1 5.7 1.2l-.032.009a.48.48 0 1 1-.225-.932ZM10.546.646a.48.48 0 0 1-.393.875l-.029-.013a.48.48 0 0 1 .422-.862ZM3.812.951a.48.48 0 0 1 .467.838l-.028.016a.48.48 0 1 1-.439-.854ZM12.046 1.537a.48.48 0 0 1-.573.769l-.025-.019a.48.48 0 0 1 .598-.75ZM2.386 1.985a.48.48 0 1 1 .65.706l-.024.022a.48.48 0 0 1-.626-.728ZM13.319 2.771a.48.48 0 0 1-.746.602l-.02-.026a.48.48 0 0 1 .766-.576ZM1.235 3.33a.48.48 0 1 1 .795.534l-.018.027a.48.48 0 0 1-.777-.561ZM14.258 4.249a.48.48 0 1 1-.866.414l-.013-.028a.48.48 0 0 1 .879-.386ZM.44 4.878a.48.48 0 1 1 .899.337l-.012.032A.48.48 0 0 1 .44 4.878ZM14.833 5.929a.48.48 0 1 1-.938.2l-.007-.032a.48.48 0 0 1 .945-.168ZM.02 6.605a.48.48 0 1 1 .952.116l-.004.031a.48.48 0 0 1-.948-.147ZM15 7.505a.48.48 0 0 1-.96.028v-.03a.48.48 0 0 1 .96.002ZM.007 8.28a.48.48 0 1 1 .954-.097l.003.031A.48.48 0 0 1 .007 8.28ZM14.805 9.203a.48.48 0 1 1-.934-.219l.007-.032a.48.48 0 0 1 .927.251ZM.395 10.005a.48.48 0 1 1 .906-.317l.011.032a.48.48 0 0 1-.917.285ZM14.203 10.87a.48.48 0 1 1-.857-.432l.015-.029a.48.48 0 0 1 .842.461ZM1.165 11.572a.48.48 0 1 1 .808-.517l.018.027a.48.48 0 0 1-.826.49ZM13.237 12.335a.48.48 0 0 1-.733-.618l.021-.024a.48.48 0 1 1 .712.642ZM2.292 12.935a.48.48 0 1 1 .664-.692l.023.023a.48.48 0 0 1-.687.669ZM11.945 13.547a.48.48 0 1 1-.568-.773l.026-.019a.48.48 0 0 1 .542.792ZM3.703 13.994a.48.48 0 1 1 .484-.828l.028.016a.48.48 0 0 1-.512.812ZM10.432 14.41a.48.48 0 1 1-.374-.882l.029-.012a.48.48 0 0 1 .345.894ZM5.318 14.694a.48.48 0 1 1 .278-.917l.032.01a.48.48 0 0 1-.31.907ZM8.719 14.91a.48.48 0 1 1-.156-.946l.032-.006a.48.48 0 0 1 .124.952ZM7.037 14.999a.48.48 0 1 1 .059-.957l.031.002a.48.48 0 0 1-.09.955Z"/>
  </g>
</svg>
